<svg width="133" height="140" viewBox="0 0 133 140" fill="none" xmlns="http://www.w3.org/2000/svg">
<path d="M3.01744 0V66.7969H10.4881C12.5272 84.7559 22.3534 100.225 36.3866 109.395L39.9315 127.354L11.9969 113.76C12.1427 113.193 12.0882 112.585 11.8417 112.03C11.5953 111.474 11.1704 111.002 10.6317 110.684C10.3062 110.492 9.94796 110.363 9.57755 110.302C9.20714 110.241 8.83183 110.251 8.47313 110.329C8.11442 110.408 7.77938 110.555 7.48718 110.762C7.19499 110.968 6.9514 111.231 6.77037 111.533C6.40171 112.14 6.30787 112.876 6.50947 113.579C6.71107 114.283 7.19161 114.895 7.84556 115.283C8.32454 115.567 8.87177 115.715 9.42058 115.71C9.96938 115.705 10.496 115.546 10.9364 115.254L33.3397 139.746H96.7967L106.582 133.213C106.588 133.406 106.618 133.592 106.67 133.77C106.777 134.091 106.959 134.372 107.206 134.599C107.453 134.826 107.759 134.993 108.107 135.091C108.455 135.189 108.839 135.216 109.236 135.17C109.632 135.124 110.035 135.007 110.42 134.824C111.191 134.456 111.844 133.85 112.239 133.137C112.634 132.424 112.738 131.662 112.529 131.016C112.367 130.522 112.03 130.124 111.562 129.873L122.256 122.695L96.0057 130.371L105.498 113.525L83.0858 126.299L84.9022 114.844C104.502 107.49 118.974 89.0332 121.523 66.7969H128.994V0H120.205V45.5273C114.082 20.2236 92.1678 1.42676 66.0057 1.42676C39.8436 1.42676 17.9383 20.2002 11.8065 45.4688V0H3.01744ZM66.0057 6.01758C94.3065 6.01758 117.334 30.0293 117.334 59.8535C117.334 82.2949 104.297 101.455 85.7518 109.57L87.0702 101.338L70.6932 130.371C70.7225 116.572 71.1327 83.7012 80.8299 70.4004C92.7538 65.5371 100.869 55.0488 100.869 43.0664C100.869 26.5723 85.4588 12.8906 66.0057 12.8906C46.5526 12.8906 31.1424 26.5723 31.1424 43.0664C31.1424 55.0488 39.2577 65.5371 51.1815 70.4004C60.8788 83.7012 61.2889 116.572 61.3182 130.371L46.1424 92.8711L46.3475 108.369L30.9667 82.002L35.0975 102.861C22.7049 93.0176 14.6893 77.4609 14.6893 59.8535C14.6893 30.0293 37.7049 6.01758 66.0057 6.01758ZM41.0155 84.1699C40.9263 84.1742 40.8383 84.184 40.7518 84.1992C40.0824 84.3054 39.5318 84.7308 39.2192 85.3834C38.9066 86.036 38.8573 86.8631 39.0819 87.6855C39.3093 88.5112 39.7944 89.2642 40.4311 89.7802C41.0679 90.2962 41.8046 90.5332 42.4803 90.4395C42.8181 90.392 43.1303 90.2631 43.3988 90.0603C43.6674 89.8575 43.887 89.5847 44.045 89.2579C44.203 88.931 44.2963 88.5564 44.3193 88.1558C44.3424 87.7552 44.2949 87.3365 44.1795 86.9238C43.9623 86.1498 43.5183 85.4395 42.9337 84.9307C42.3491 84.4219 41.6655 84.1507 41.0155 84.1699ZM94.0428 93.2227C93.4801 93.2397 92.8859 93.4695 92.3373 93.8822C91.7887 94.295 91.3111 94.8716 90.9667 95.5371C90.7407 95.975 90.578 96.4403 90.488 96.9061C90.3981 97.3719 90.3826 97.829 90.4425 98.2511C90.5024 98.6732 90.6365 99.052 90.8371 99.3655C91.0377 99.6791 91.3008 99.9213 91.6112 100.078C92.2349 100.391 93.0108 100.342 93.7687 99.9409C94.5266 99.54 95.2046 98.8203 95.6542 97.9395C96.1027 97.0596 96.2867 96.0911 96.1659 95.2456C96.0452 94.4001 95.6294 93.7465 95.0096 93.4277C94.7183 93.2804 94.3905 93.2108 94.0428 93.2227ZM1.2479 96.5332C0.878796 96.518 0.572282 96.6188 0.35728 96.8262C0.0141745 97.1397 -0.0869023 97.6917 0.0761637 98.3615C0.23923 99.0314 0.653162 99.7645 1.2274 100.4C1.80308 101.038 2.49273 101.525 3.14481 101.756C3.79689 101.987 4.35803 101.942 4.70494 101.631C4.88001 101.477 4.99643 101.262 5.04744 100.997C5.09845 100.732 5.08303 100.423 5.00208 100.088C4.92113 99.7528 4.77626 99.398 4.57588 99.0442C4.3755 98.6905 4.1236 98.3448 3.83482 98.0273C3.44434 97.5959 2.99806 97.2295 2.54286 96.9666C2.08767 96.7037 1.64035 96.554 1.2479 96.5332ZM107.637 104.238C107.157 104.248 106.564 104.471 105.936 104.879C105.309 105.287 104.676 105.86 104.121 106.523C103.391 107.391 102.845 108.354 102.604 109.2C102.362 110.045 102.444 110.706 102.832 111.035C103.025 111.201 103.288 111.279 103.606 111.265C103.924 111.251 104.292 111.146 104.687 110.955C105.082 110.765 105.497 110.492 105.907 110.154C106.318 109.816 106.717 109.418 107.08 108.984C107.81 108.116 108.356 107.154 108.597 106.308C108.839 105.462 108.757 104.802 108.369 104.473C108.185 104.313 107.937 104.234 107.637 104.238ZM131.426 121.729C130.808 121.735 130.044 121.956 129.234 122.364C128.424 122.772 127.606 123.346 126.885 124.014C126.412 124.452 125.993 124.92 125.653 125.389C125.313 125.858 125.058 126.32 124.902 126.747C124.747 127.175 124.695 127.56 124.748 127.88C124.802 128.2 124.961 128.449 125.215 128.613C125.726 128.939 126.588 128.903 127.615 128.514C128.641 128.124 129.748 127.412 130.693 126.533C131.166 126.094 131.585 125.627 131.925 125.158C132.265 124.689 132.52 124.227 132.675 123.8C132.831 123.372 132.883 122.987 132.829 122.667C132.776 122.347 132.617 122.097 132.363 121.934C132.122 121.788 131.804 121.719 131.426 121.729ZM12.8348 127.002C12.302 126.999 11.8179 127.098 11.4187 127.291C11.0195 127.483 10.7154 127.765 10.5292 128.115C10.2078 128.733 10.2709 129.521 10.7046 130.306C11.1382 131.091 11.9073 131.81 12.8436 132.305C13.78 132.801 14.8082 133.033 15.7031 132.951C16.598 132.868 17.2869 132.478 17.619 131.865C17.7841 131.559 17.8551 131.207 17.828 130.828C17.8008 130.45 17.6761 130.053 17.461 129.661C17.2458 129.269 16.9445 128.889 16.5744 128.543C16.2043 128.197 15.7727 127.893 15.3045 127.646C14.5026 127.228 13.6322 127.001 12.8348 127.002Z" fill="#98012E"/>
</svg>
