<svg width="140" height="102" viewBox="0 0 140 102" fill="none" xmlns="http://www.w3.org/2000/svg">
<path d="M121.407 0.00253311C120.604 0.0171816 119.797 0.126459 118.992 0.340033C116.511 0.999213 114.51 2.54081 113.004 4.58515C80.1247 15.2958 48.9496 25.1732 16.3662 35.6674C4.73123 39.4144 -2.55959 50.6565 0.837091 61.0924C4.23465 71.5279 16.7576 76.4079 28.3864 72.5993L28.3858 72.5999C60.4395 62.1037 91.2054 52.3745 123.636 41.939C123.8 42.0011 123.967 42.0532 124.132 42.1089C123.365 42.9687 122.894 44.0999 122.894 45.3433C122.894 48.028 125.071 50.2045 127.756 50.2045C130.44 50.2045 132.618 48.0277 132.618 45.3433C132.618 44.0776 132.13 42.9292 131.338 42.0644C135.074 40.6391 137.594 37.1231 138.819 33.0122C140.151 28.5424 140.139 23.1526 138.648 17.6372C137.158 12.1212 134.451 7.45068 131.049 4.24501C128.496 1.84091 125.405 0.204973 122.208 0.017473C121.942 0.00223864 121.674 -0.00303281 121.407 0.00165469V0.00253311ZM121.552 5.47519C121.687 5.47316 121.821 5.47658 121.956 5.48544C123.587 5.59032 125.418 6.46396 127.294 8.23056C129.794 10.586 132.11 14.4312 133.363 19.0663C134.424 22.9921 134.535 26.7998 133.952 29.8628H118.488C117.458 28.0443 116.581 25.9511 115.962 23.6642C114.71 19.0288 114.777 14.5546 115.753 11.2815C116.728 8.00849 118.425 6.15546 120.398 5.63163C120.775 5.53209 121.162 5.47935 121.552 5.4746L121.552 5.47519ZM110.298 10.4683C109.18 14.7849 109.268 19.8822 110.676 25.0933C111.114 26.7212 111.675 28.3137 112.354 29.8569H68.0515C49.1828 35.9337 31.1796 41.7242 20.195 45.2642C13.3864 47.4573 9.83768 53.2935 11.287 57.7426C12.736 62.1922 19.0747 64.8714 25.8622 62.6498C45.4589 56.2367 84.1659 43.7855 114.58 33.9966C115.681 35.6978 116.923 37.2096 118.277 38.4857C118.296 38.5029 118.316 38.5205 118.335 38.5385C87.6101 48.427 47.5366 61.3139 27.5649 67.85C18.5336 70.8061 8.69071 67.4592 6.07742 59.4359C3.46414 51.4127 9.47674 42.9652 18.5104 40.0546C38.4484 33.6298 79.5065 20.4268 110.298 10.4683ZM127.753 63.2627C122.788 81.7944 115.886 79.2213 115.886 90.0693C115.886 96.6201 121.202 101.937 127.753 101.937C134.304 101.937 139.621 96.6204 139.621 90.0693C139.621 78.3594 132.807 82.124 127.753 63.2627Z" fill="#98012E"/>
</svg>
