<svg width="134" height="142" viewBox="0 0 134 142" fill="none" xmlns="http://www.w3.org/2000/svg">
<path d="M70.6875 0L50 20.6875H20.6875V50L0 70.6875L20.6875 91.375V120.688H50L70.6875 141.375L76.9375 135.125V107.125L97.1875 127.375L106.062 118.563L76.9375 89.4375V76.9375H89.4375L118.562 106.062L127.375 97.1875L107.125 76.9375H133.188V64.4375H107.125L127.375 44.1875L118.562 35.3125L89.4375 64.4375H76.9375V51.9375L106.062 22.8125L97.1875 14L76.9375 34.25V6.25M64.4375 33.75V46.5C53.4375 49.375 45.6875 59.3125 45.6875 70.6875C45.7023 76.224 47.55 81.5997 50.942 85.9754C54.334 90.3512 59.0795 93.4806 64.4375 94.875V107.625C55.7059 106.149 47.7783 101.631 42.0587 94.8702C36.339 88.1096 33.1965 79.543 33.1875 70.6875C33.1875 52.375 46.375 36.75 64.4375 33.75Z" fill="#98012E"/>
</svg>
