<svg width="76" height="103" viewBox="0 0 76 103" fill="none" xmlns="http://www.w3.org/2000/svg">
<path d="M34.2313 74.6688C34.2313 78.6271 35.1063 82.4604 36.8563 86.1687C38.6063 89.8729 41.4375 94.0312 45.35 98.6438L40.7687 102.444C36.4104 97.7729 33.1833 93.1937 31.0875 88.7062C28.9917 84.2188 27.9437 79.6042 27.9437 74.8625C27.9437 71.225 28.4646 67.4583 29.5062 63.5625C30.5396 59.6667 32.2896 54.7583 34.7562 48.8375C37.0979 43.0917 38.6917 38.6625 39.5375 35.55C40.3833 32.4375 40.8063 29.5396 40.8063 26.8562C40.8063 23.0021 39.8792 19.325 38.025 15.825C36.1708 12.3208 33.1188 8.50417 28.8688 4.375L33.1375 0C38.0167 4.65833 41.5563 9.12708 43.7563 13.4062C45.9563 17.6854 47.0563 22.1167 47.0563 26.7C47.0563 29.8667 46.5958 33.2333 45.675 36.8C44.7542 40.3667 43.0583 45.1417 40.5875 51.125C38.1458 57.1333 36.475 61.825 35.575 65.2C34.6792 68.5708 34.2313 71.7271 34.2313 74.6688ZM62.2125 74.9062C62.2125 78.8646 63.0813 82.6979 64.8187 86.4062C66.5604 90.1104 69.3854 94.2708 73.2937 98.8875L68.7125 102.65C64.3542 97.9792 61.1333 93.4063 59.05 88.9313C56.9667 84.4563 55.925 79.8458 55.925 75.1C55.925 71.4625 56.4437 67.6958 57.4812 63.8C58.5229 59.9083 60.2771 55 62.7437 49.075C65.0812 43.3333 66.6729 38.9042 67.5187 35.7875C68.3646 32.675 68.7875 29.7792 68.7875 27.1C68.7875 23.2417 67.8542 19.5625 65.9875 16.0625C64.1208 12.5625 61.0625 8.74792 56.8125 4.61875L61.075 0.24375C65.9542 4.89792 69.5 9.36458 71.7125 13.6437C73.925 17.9229 75.0292 22.3542 75.025 26.9375C75.025 30.1042 74.5667 33.4708 73.65 37.0375C72.7292 40.6083 71.0333 45.3833 68.5625 51.3625C66.1208 57.3708 64.45 62.0625 63.55 65.4375C62.6542 68.8125 62.2062 71.9688 62.2062 74.9062M6.28125 74.9062C6.28125 78.8646 7.15625 82.6979 8.90625 86.4062C10.6563 90.1104 13.4875 94.2708 17.4 98.8875L12.8187 102.681C8.46041 98.0146 5.23333 93.4354 3.1375 88.9437C1.04583 84.4604 0 79.8458 0 75.1C0 71.4625 0.51875 67.6958 1.55625 63.8C2.59375 59.9083 4.34583 55 6.8125 49.075C9.15417 43.3333 10.7479 38.9042 11.5938 35.7875C12.4396 32.675 12.8625 29.7792 12.8625 27.1C12.8625 23.2417 11.9333 19.5625 10.075 16.0625C8.22083 12.5625 5.17083 8.74792 0.924999 4.61875L5.15625 0.24375C10.0354 4.89792 13.5813 9.36458 15.7938 13.6437C18.0063 17.9229 19.1104 22.3542 19.1063 26.9375C19.1063 30.1042 18.6479 33.4708 17.7312 37.0375C16.8062 40.6083 15.1104 45.3833 12.6437 51.3625C10.2021 57.3708 8.53125 62.0625 7.63125 65.4375C6.73542 68.8125 6.28125 71.9688 6.28125 74.9062Z" fill="#98012E"/>
</svg>
