<svg width="155" height="165" viewBox="0 0 155 165" fill="none" xmlns="http://www.w3.org/2000/svg">
<path d="M153.163 151H114.163V101H87.1631V44H114.163V1H153.163V151Z" fill="#98012E" stroke="#98012E" stroke-width="2"/>
<path d="M119.165 51.7625C119.165 51.7625 98.8747 48.9218 86.1852 51.7625C72.9948 54.7154 65.7796 58.7679 53.9905 66.9469C46.2016 72.3507 42.339 76.5094 35.1449 83.1436C28.5602 89.2157 25.3319 93.4378 18.655 99.3402C12.4087 104.862 8.7841 107.755 2.16504 112.5" stroke="#98012E" stroke-width="4"/>
<path d="M118.165 76.7625C118.165 76.7625 97.8747 73.9218 85.1852 76.7625C71.9948 79.7154 64.7796 83.7679 52.9905 91.9469C45.2016 97.3507 41.339 101.509 34.1449 108.144C27.5602 114.216 24.3319 118.438 17.655 124.34C11.4087 129.862 7.7841 132.755 1.16504 137.5" stroke="#98012E" stroke-width="4"/>
<path d="M118.165 101.763C118.165 101.763 97.8747 98.9218 85.1852 101.763C71.9948 104.715 64.7796 108.768 52.9905 116.947C45.2016 122.351 41.339 126.509 34.1449 133.144C27.5602 139.216 24.3319 143.438 17.655 149.34C11.4087 154.862 7.7841 157.755 1.16504 162.5" stroke="#98012E" stroke-width="4"/>
</svg>
