<svg width="107" height="116" viewBox="0 0 107 116" fill="none" xmlns="http://www.w3.org/2000/svg">
<path d="M84.375 33.7626C84.375 43.1376 81.25 55.6376 66.25 60.6376C70.625 50.0126 71.25 39.3876 68.125 29.3876C63.75 16.2626 49.375 6.26262 39.375 0.637618C36.875 -1.23738 32.5 1.26262 33.125 5.01262C33.125 11.8876 31.25 21.8876 20.625 32.5126C6.875 46.2626 0 60.6376 0 74.3876C0 92.5126 12.5 115.013 37.5 115.013C12.5 90.0126 31.25 68.1376 31.25 68.1376C36.25 105.013 62.5 115.013 75 115.013C85.625 115.013 106.25 107.513 106.25 75.0126C106.25 55.6376 98.125 40.6376 91.25 31.8876C89.375 28.7626 85 30.6376 84.375 33.7626Z" fill="#98012E"/>
</svg>
