<svg width="127" height="127" viewBox="0 0 127 127" fill="none" xmlns="http://www.w3.org/2000/svg">
<path d="M126.563 107.812H32.8125M32.8125 107.812C32.8125 110.594 31.9878 113.313 30.4425 115.625C28.8973 117.938 26.7011 119.74 24.1315 120.805C21.5619 121.869 18.7344 122.147 16.0065 121.605C13.2787 121.062 10.773 119.723 8.80632 117.756C6.83964 115.79 5.50032 113.284 4.95771 110.556C4.41511 107.828 4.69359 105.001 5.75795 102.431C6.82231 99.8614 8.62473 97.6652 10.9373 96.12C13.2499 94.5747 15.9687 93.75 18.75 93.75M32.8125 107.812C32.8125 104.083 31.3309 100.506 28.6937 97.8688C26.0565 95.2316 22.4796 93.75 18.75 93.75M18.75 93.75V0M37.5 14.0625V42.1875H93.75V14.0625H37.5ZM37.5 60.9375V89.0625H112.5V60.9375H37.5Z" stroke="#98012E" stroke-width="9.375"/>
</svg>
