<svg width="88" height="118" viewBox="0 0 88 118" fill="none" xmlns="http://www.w3.org/2000/svg">
<path d="M43.275 83.4375C43.275 87.3958 44.2917 91.3292 46.325 95.2375C48.3583 99.1458 51.7687 103.806 56.5562 109.219L47.65 117.344C41.6083 110.99 37.2604 105.208 34.6062 100C31.9521 94.7917 30.6229 89.375 30.6188 83.75C30.6188 79.7917 31.2188 75.625 32.4188 71.25C33.6188 66.875 35.5708 61.4062 38.275 54.8437C40.775 48.6979 42.4688 44.0896 43.3563 41.0187C44.2438 37.9479 44.6854 35.1083 44.6813 32.5C44.6813 28.6458 43.6125 24.9479 41.475 21.4063C39.3375 17.8646 35.6667 13.75 30.4625 9.0625L39.0563 0C45.6188 5.9375 50.2813 11.4062 53.0438 16.4062C55.8063 21.4062 57.1854 26.7188 57.1813 32.3438C57.1813 35.9896 56.6604 39.8187 55.6188 43.8312C54.5771 47.8437 52.7021 53.0771 49.9938 59.5312C47.3896 65.7812 45.6188 70.5729 44.6813 73.9062C43.7438 77.2396 43.275 80.4167 43.275 83.4375ZM73.9 83.4375C73.9 87.3958 74.8896 91.3292 76.8688 95.2375C78.8479 99.1458 82.2333 103.806 87.025 109.219L78.1188 117.188C72.0771 110.833 67.7542 105.079 65.15 99.925C62.5458 94.7708 61.2437 89.3792 61.2437 83.75C61.2437 79.7917 61.8438 75.625 63.0438 71.25C64.2438 66.875 66.1958 61.4062 68.9 54.8437C71.4 48.6979 73.0938 44.0896 73.9812 41.0187C74.8688 37.9479 75.3104 35.1083 75.3063 32.5C75.3063 28.6458 74.2125 24.9479 72.025 21.4063C69.8375 17.8646 66.1396 13.75 60.9313 9.0625L69.525 0C76.0875 5.9375 80.775 11.4062 83.5875 16.4062C86.4 21.4062 87.8063 26.7188 87.8063 32.3438C87.8063 35.9896 87.2854 39.8167 86.2438 43.825C85.2021 47.8333 83.3271 53.0687 80.6188 59.5312C78.0146 65.7812 76.2438 70.5729 75.3063 73.9062C74.3688 77.2396 73.9 80.4167 73.9 83.4375ZM12.8063 83.4375C12.8063 87.3958 13.8208 91.3292 15.85 95.2375C17.8792 99.1458 21.2917 103.806 26.0875 109.219L17.1812 117.344C11.1396 110.99 6.79167 105.208 4.1375 100C1.48333 94.7917 0.154168 89.375 0.150001 83.75C0.150001 79.7917 0.750002 75.625 1.95 71.25C3.15 66.875 5.10208 61.4062 7.80625 54.8437C10.3063 48.6979 12 44.0896 12.8875 41.0187C13.775 37.9479 14.2167 35.1083 14.2125 32.5C14.2125 28.6458 13.1438 24.9479 11.0063 21.4063C8.86875 17.8646 5.2 13.75 0 9.0625L8.4375 0C14.9958 5.9375 19.6812 11.4062 22.4937 16.4062C25.3062 21.4062 26.7125 26.7188 26.7125 32.3438C26.7125 35.9896 26.1917 39.8187 25.15 43.8312C24.1083 47.8437 22.2333 53.0771 19.525 59.5312C16.9208 65.7812 15.15 70.5729 14.2125 73.9062C13.275 77.2396 12.8063 80.4167 12.8063 83.4375Z" fill="#98012E"/>
</svg>
