<svg width="132" height="136" viewBox="0 0 132 136" fill="none" xmlns="http://www.w3.org/2000/svg">
<path d="M128.156 70.5938C127.251 70.2665 126.267 70.2259 125.338 70.4774C124.408 70.729 123.579 71.2607 122.963 72L105.281 93.2156L79.8047 88.5844L62.9203 46.6219C61.9085 43.9443 60.1063 41.6378 57.7528 40.0086C55.3994 38.3794 52.6061 37.5045 49.7438 37.5H30.7125C28.1643 37.5011 25.6643 38.1946 23.4797 39.5063L0 53.5969V83.5969L23.4375 87.8625V135.938H32.8125V89.5641L49.5234 92.6016L56.25 108.75V135.938H65.625V106.875L60.5109 94.6031L98.3906 101.489L76.0875 128.25C75.5175 128.934 75.1542 129.767 75.0403 130.65C74.9263 131.534 75.0664 132.431 75.4442 133.238C75.8219 134.045 76.4216 134.727 77.1731 135.205C77.9246 135.683 78.7968 135.937 79.6875 135.938H126.562C127.806 135.938 128.998 135.444 129.877 134.565C130.756 133.686 131.25 132.493 131.25 131.25V75C131.25 74.0367 130.952 73.0968 130.399 72.3084C129.845 71.52 129.062 70.9213 128.156 70.5938ZM9.375 75.7781V58.9031L23.4375 50.4656V78.3328L9.375 75.7781ZM32.8125 80.0391V46.875H49.7531C50.7245 46.8808 51.6706 47.1853 52.463 47.7471C53.2554 48.309 53.8558 49.1009 54.1828 50.0156L68.9016 86.6016L32.8125 80.0391ZM121.875 126.563H89.6953L121.875 87.9469V126.563ZM49.2188 32.8125C45.9739 32.8125 42.8019 31.8503 40.1039 30.0476C37.4059 28.2448 35.3031 25.6825 34.0614 22.6847C32.8196 19.6868 32.4947 16.3881 33.1277 13.2056C33.7608 10.0231 35.3233 7.09974 37.6178 4.80529C39.9122 2.51083 42.8355 0.948288 46.018 0.315249C49.2006 -0.31779 52.4993 0.00710855 55.4972 1.24886C58.495 2.49061 61.0573 4.59344 62.8601 7.29143C64.6628 9.98943 65.625 13.1614 65.625 16.4063C65.62 20.7559 63.8899 24.9261 60.8142 28.0017C57.7385 31.0774 53.5684 32.8075 49.2188 32.8125ZM49.2188 9.37501C47.8281 9.37501 46.4687 9.78738 45.3124 10.56C44.1561 11.3326 43.2549 12.4307 42.7227 13.7155C42.1905 15.0003 42.0513 16.4141 42.3226 17.778C42.5939 19.1419 43.2636 20.3948 44.2469 21.3781C45.2302 22.3614 46.4831 23.0311 47.847 23.3024C49.2109 23.5737 50.6247 23.4345 51.9095 22.9023C53.1943 22.3701 54.2924 21.4689 55.065 20.3126C55.8376 19.1563 56.25 17.7969 56.25 16.4063C56.25 14.5415 55.5092 12.753 54.1906 11.4344C52.872 10.1158 51.0836 9.37501 49.2188 9.37501Z" fill="#98012E"/>
</svg>
