<svg width="150" height="150" viewBox="0 0 150 150" fill="none" xmlns="http://www.w3.org/2000/svg">
<path d="M112.5 12.5H81.25C81.25 15.9375 78.4375 18.75 75 18.75C71.5625 18.75 68.75 15.9375 68.75 12.5H37.5C30.625 12.5 25 18.125 25 25V125C25 131.875 30.625 137.5 37.5 137.5H112.5C119.375 137.5 125 131.875 125 125V25C125 18.125 119.375 12.5 112.5 12.5Z" fill="#98012E"/>
<path d="M112.5 128.125H37.5C35.625 128.125 34.375 126.875 34.375 125V25C34.375 23.125 35.625 21.875 37.5 21.875H112.5C114.375 21.875 115.625 23.125 115.625 25V125C115.625 126.875 114.375 128.125 112.5 128.125Z" fill="white"/>
<path d="M81.25 12.5C81.25 15.9375 78.4375 18.75 75 18.75C71.5625 18.75 68.75 15.9375 68.75 12.5H46.875V25C46.875 28.4375 49.6875 31.25 53.125 31.25H96.875C100.312 31.25 103.125 28.4375 103.125 25V12.5H81.25Z" fill="#98012E"/>
<path d="M75 0C68.125 0 62.5 5.625 62.5 12.5C62.5 19.375 68.125 25 75 25C81.875 25 87.5 19.375 87.5 12.5C87.5 5.625 81.875 0 75 0ZM75 18.75C71.5625 18.75 68.75 15.9375 68.75 12.5C68.75 9.0625 71.5625 6.25 75 6.25C78.4375 6.25 81.25 9.0625 81.25 12.5C81.25 15.9375 78.4375 18.75 75 18.75Z" fill="#98012E"/>
<path d="M95.625 58.125L67.5 86.25L54.375 72.8125L46.5625 80.625L67.8125 101.562L103.437 65.9375L95.625 58.125Z" fill="#98012E"/>
</svg>
