<svg width="150" height="150" viewBox="0 0 150 150" fill="none" xmlns="http://www.w3.org/2000/svg">
<path d="M4.6875 145.312H145.312M4.6875 79.6875H145.312M37.5 98.4375V126.562M56.25 98.4375V126.562M75 98.4375V126.562M14.0625 79.6875L51.5625 51.5625M14.0625 79.6875H135.938M14.0625 79.6875V145.312H135.938V79.6875M112.5 98.4375V126.562M93.75 98.4375V126.562M135.938 79.6875L98.4375 51.5625M75 24.6625V4.6875M65.625 34.4438C65.625 36.9302 66.6127 39.3147 68.3709 41.0729C70.129 42.831 72.5136 43.8188 75 43.8188C77.4864 43.8188 79.871 42.831 81.6291 41.0729C83.3873 39.3147 84.375 36.9302 84.375 34.4438C84.375 31.9573 83.3873 29.5728 81.6291 27.8146C79.871 26.0565 77.4864 25.0688 75 25.0688C72.5136 25.0688 70.129 26.0565 68.3709 27.8146C66.6127 29.5728 65.625 31.9573 65.625 34.4438Z" stroke="#98012E" stroke-width="9.375" stroke-linecap="round" stroke-linejoin="round"/>
</svg>
