<svg width="113" height="113" viewBox="0 0 113 113" fill="none" xmlns="http://www.w3.org/2000/svg">
<path d="M107.812 70.3125H79.6875V42.1875H107.812C109.056 42.1875 110.248 41.6936 111.127 40.8146C112.006 39.9355 112.5 38.7432 112.5 37.5C112.5 36.2568 112.006 35.0645 111.127 34.1854C110.248 33.3064 109.056 32.8125 107.812 32.8125H79.6875V4.6875C79.6875 3.4443 79.1936 2.25201 78.3146 1.37294C77.4355 0.493861 76.2432 0 75 0C73.7568 0 72.5645 0.493861 71.6854 1.37294C70.8064 2.25201 70.3125 3.4443 70.3125 4.6875V32.8125H42.1875V4.6875C42.1875 3.4443 41.6936 2.25201 40.8146 1.37294C39.9355 0.493861 38.7432 0 37.5 0C36.2568 0 35.0645 0.493861 34.1854 1.37294C33.3064 2.25201 32.8125 3.4443 32.8125 4.6875V32.8125H4.6875C3.4443 32.8125 2.25201 33.3064 1.37294 34.1854C0.493861 35.0645 0 36.2568 0 37.5C0 38.7432 0.493861 39.9355 1.37294 40.8146C2.25201 41.6936 3.4443 42.1875 4.6875 42.1875H32.8125V70.3125H4.6875C3.4443 70.3125 2.25201 70.8064 1.37294 71.6854C0.493861 72.5645 0 73.7568 0 75C0 76.2432 0.493861 77.4355 1.37294 78.3146C2.25201 79.1936 3.4443 79.6875 4.6875 79.6875H32.8125V107.812C32.8125 109.056 33.3064 110.248 34.1854 111.127C35.0645 112.006 36.2568 112.5 37.5 112.5C38.7432 112.5 39.9355 112.006 40.8146 111.127C41.6936 110.248 42.1875 109.056 42.1875 107.812V79.6875H70.3125V107.812C70.3125 109.056 70.8064 110.248 71.6854 111.127C72.5645 112.006 73.7568 112.5 75 112.5C76.2432 112.5 77.4355 112.006 78.3146 111.127C79.1936 110.248 79.6875 109.056 79.6875 107.812V79.6875H107.812C109.056 79.6875 110.248 79.1936 111.127 78.3146C112.006 77.4355 112.5 76.2432 112.5 75C112.5 73.7568 112.006 72.5645 111.127 71.6854C110.248 70.8064 109.056 70.3125 107.812 70.3125ZM42.1875 70.3125V42.1875H70.3125V70.3125H42.1875Z" fill="#98012E"/>
</svg>
