<svg width="112" height="113" viewBox="0 0 112 113" fill="none" xmlns="http://www.w3.org/2000/svg">
<path fill-rule="evenodd" clip-rule="evenodd" d="M92.5692 32.0313C94.8879 34.5907 94.1785 38.5188 91.3504 40.5L76.1254 51.1813C73.3004 53.1625 69.4379 52.3625 66.6473 50.3375C63.5059 48.0508 59.7354 46.7892 55.8504 46.725C51.9654 46.6613 48.155 47.7961 44.9379 49.975C42.0785 51.9094 38.1942 52.5813 35.4379 50.5063L20.5723 39.325C17.816 37.25 17.2348 33.2969 19.6379 30.8188C24.3967 25.9111 30.1113 22.0314 36.4286 19.4194C42.7459 16.8074 49.5317 15.5185 56.3668 15.6324C63.2019 15.7464 69.941 17.2607 76.1677 20.0818C82.3945 22.9029 87.9766 26.9678 92.5692 32.0313ZM87.3973 35.6469C83.3906 31.3888 78.5712 27.977 73.2236 25.6131C67.8761 23.2492 62.1089 21.9811 56.263 21.8838C50.417 21.7865 44.6109 22.862 39.1877 25.0466C33.7644 27.2313 28.834 30.4808 24.6879 34.6032L39.1817 45.5032C39.3151 45.5315 39.4524 45.5379 39.5879 45.5219C40.0785 45.4782 40.766 45.2532 41.4317 44.8032C45.848 41.8117 51.1009 40.3015 56.4317 40.4907C56.5504 40.2407 56.7056 40.0053 56.8973 39.7844L65.4785 29.9157C66.0222 29.2899 66.7922 28.9058 67.6191 28.8478C68.4461 28.7897 69.2622 29.0626 69.8879 29.6063C70.5137 30.15 70.8978 30.92 70.9558 31.7469C71.0138 32.5738 70.741 33.3899 70.1973 34.0157L63.4629 41.7594C65.9177 42.5716 68.2317 43.7597 70.3223 45.2813C70.9723 45.7532 71.6504 46 72.141 46.0625C72.3785 46.0938 72.5035 46.0719 72.5473 46.0594L87.3973 35.6469ZM72.5754 46.05L72.5473 46.0594C72.5598 46.049 72.5712 46.0459 72.5754 46.05Z" fill="#98012E"/>
<path fill-rule="evenodd" clip-rule="evenodd" d="M93.7099 112.5C96.9051 112.5 99.979 111.277 102.3 109.081C104.622 106.885 106.014 103.884 106.191 100.694L111.054 13.1938C111.148 11.4964 110.895 9.7976 110.31 8.2013C109.726 6.60499 108.822 5.14471 107.654 3.90976C106.485 2.6748 105.077 1.69112 103.516 1.01887C101.955 0.346619 100.272 -7.02208e-05 98.5724 1.06684e-08H12.4974C10.7977 0.00035472 9.11587 0.347357 7.55481 1.0198C5.99375 1.69223 4.58624 2.67598 3.4183 3.91089C2.25037 5.1458 1.34657 6.60594 0.762136 8.20203C0.177706 9.79813 -0.0750677 11.4966 0.0192672 13.1938L4.87864 100.694C5.05597 103.884 6.44827 106.885 8.76951 109.081C11.0907 111.277 14.1647 112.5 17.3599 112.5H93.7099ZM17.3599 106.25H93.7099C95.308 106.25 96.8454 105.638 98.0061 104.539C99.1668 103.441 99.8626 101.939 99.9505 100.344L104.813 12.8437C104.86 11.9953 104.733 11.1463 104.44 10.3485C104.148 9.5507 103.696 8.82094 103.112 8.2038C102.528 7.58667 101.824 7.09511 101.043 6.75918C100.263 6.42324 99.4221 6.24999 98.5724 6.25H12.4974C11.6477 6.24999 10.8069 6.42324 10.0264 6.75918C9.2459 7.09511 8.5421 7.58667 7.95801 8.2038C7.37392 8.82094 6.92181 9.5507 6.6293 10.3485C6.33679 11.1463 6.21003 11.9953 6.25677 12.8437L11.1193 100.344C11.2072 101.939 11.903 103.441 13.0637 104.539C14.2244 105.638 15.7618 106.25 17.3599 106.25Z" fill="#98012E"/>
</svg>
