<svg width="304" height="315" viewBox="0 0 304 315" fill="none" xmlns="http://www.w3.org/2000/svg">
<path d="M78.6528 147.006C79.7604 145.154 82.1373 144.515 84.0248 145.561L137.86 175.397C139.841 176.495 140.516 179.017 139.348 180.958L81.8053 276.592C81.0818 277.795 79.7812 278.53 78.3779 278.53L7.05269 278.53C3.94613 278.53 2.0253 275.143 3.61972 272.477L78.6528 147.006Z" fill="#98012E" fill-opacity="0.2"/>
<path d="M224.844 146.336C223.737 144.484 221.36 143.845 219.472 144.891L165.637 174.727C163.656 175.825 162.981 178.347 164.149 180.288L221.692 275.922C222.415 277.125 223.716 277.86 225.119 277.86L296.444 277.86C299.551 277.86 301.472 274.473 299.877 271.807L224.844 146.336Z" fill="#98012E" fill-opacity="0.2"/>
<path d="M149.319 69.1258C150.102 70.38 151.929 70.38 152.712 69.1258L182.753 21.0199C183.585 19.6878 182.627 17.9606 181.057 17.9606H120.974C119.404 17.9606 118.446 19.6878 119.278 21.0199L149.319 69.1258Z" fill="#98012E" fill-opacity="0.2"/>
<circle cx="150.282" cy="118.76" r="33.7219" fill="#98012E" fill-opacity="0.2"/>
</svg>
