<svg width="32" height="32" viewBox="0 0 32 32" fill="none" xmlns="http://www.w3.org/2000/svg">
<path d="M16.6138 13.8868C6.76194 13.8347 0 15.0912 0 17.1675C0 19.2438 7.16344 20.4515 16 20.4515C24.8366 20.4515 32 18.9812 32 17.1675C32 15.7675 27.7299 14.5728 21.7185 14.1003C21.6939 12.6869 20.5593 11.5483 19.1609 11.5483C17.8334 11.5483 16.7423 12.5738 16.6138 13.8868ZM16.6256 14.4885C16.7909 15.7614 17.8616 16.7447 19.1609 16.7447C20.3555 16.7447 21.3561 15.9128 21.6385 14.7896C25.636 15.2389 28.3636 16.1348 28.3636 17.1675C28.3636 18.6505 22.7406 19.8528 15.8042 19.8528C8.86781 19.8528 3.24475 18.6505 3.24475 17.1675C3.24475 15.6844 9.68919 14.4885 16.6256 14.4885Z" fill="#1E1E1E"/>
</svg>
