<svg width="26" height="23" viewBox="0 0 26 23" fill="none" xmlns="http://www.w3.org/2000/svg">
<path d="M6.76 4.27L5.455 8H20.145L18.84 4.27C18.615 3.63 18.01 3.2 17.33 3.2H8.27C7.59 3.2 6.985 3.63 6.76 4.27ZM1.98 8.24L3.74 3.215C4.415 1.29 6.23 0 8.27 0H17.33C19.37 0 21.185 1.29 21.86 3.215L23.62 8.24C24.78 8.72 25.6 9.865 25.6 11.2V20.8C25.6 21.685 24.885 22.4 24 22.4H22.4C21.515 22.4 20.8 21.685 20.8 20.8V19.2H4.8V20.8C4.8 21.685 4.085 22.4 3.2 22.4H1.6C0.715 22.4 0 21.685 0 20.8V11.2C0 9.865 0.82 8.72 1.98 8.24ZM6.4 13.6C6.4 12.715 5.685 12 4.8 12C3.915 12 3.2 12.715 3.2 13.6C3.2 14.485 3.915 15.2 4.8 15.2C5.685 15.2 6.4 14.485 6.4 13.6ZM20.8 15.2C21.685 15.2 22.4 14.485 22.4 13.6C22.4 12.715 21.685 12 20.8 12C19.915 12 19.2 12.715 19.2 13.6C19.2 14.485 19.915 15.2 20.8 15.2Z" fill="#1E1E1E"/>
</svg>
