<svg width="26" height="30" viewBox="0 0 26 30" fill="none" xmlns="http://www.w3.org/2000/svg">
<path d="M26 3H24V1.4005C24 0.63 23.421 0 22.715 0H16.283C15.579 0 15 0.63 15 1.4005V3H2.9705L0 9H2.0625V13H1.7285L0.0625 15L1.7285 17H2.0935V18.074C2.0935 18.3455 2.303 18.565 2.5625 18.565C3.338 18.565 3.969 19.227 3.969 20.0405C3.969 20.854 3.338 21.516 2.5625 21.516C1.787 21.516 1.156 20.854 1.156 20.0405C1.156 19.769 0.946 19.5495 0.687 19.5495C0.4275 19.5495 0.218 19.769 0.218 20.0405C0.219 21.3975 1.27 22.5 2.5625 22.5C3.855 22.5 4.9065 21.3975 4.9065 20.041C4.9065 18.8535 4.1 17.8595 3.0315 17.632V17H3.396L5.0625 15L3.396 13H3.0625V9H15V12.5995C15 13.2635 15.4305 13.82 16 13.963V30H17.3125V27L21.6875 28.5L17.3125 30H23V13.9625C23.57 13.82 24 13.2635 24 12.5995V9H26V7.5H24.961L26 5.5275V3ZM2.3215 7.5L3.4895 5.1005L4.7525 7.5H2.3215ZM4.5325 4.5H6.609L5.571 6.4725L4.5325 4.5ZM6.3895 7.5L7.428 5.5275L8.467 7.5H6.3895ZM8.247 4.5H10.3235L9.285 6.4725L8.247 4.5ZM10.1045 7.5L11.1425 5.5275L12.1805 7.5H10.1045ZM11.9615 4.5H14.038L13 6.4725L11.9615 4.5ZM15 7.5H13.8185L14.8565 5.5275L15 5.8V7.5ZM21.6875 27L17.3125 25.5L21.6875 24V27ZM17.3125 24V21L21.6875 22.501L17.3125 24ZM21.6875 21L17.3125 19.5L21.6875 18V21ZM17.3125 18V15.001L21.6875 16.5L17.3125 18ZM21.6875 15.001L18.77 14H21.6875V15.001ZM22.4375 6.624C22.4375 7.1055 22.0995 7.5 21.6875 7.5H17.1865C16.7745 7.5 16.4375 7.1055 16.4375 6.624V2.379C16.4375 1.8945 16.7745 1.5 17.1865 1.5H21.6875C22.0995 1.5 22.4375 1.8945 22.4375 2.379V6.624ZM24.1425 6.4725L24 6.2015V4.5H25.1805L24.1425 6.4725Z" fill="#1E1E1E"/>
</svg>
