<svg width="32" height="32" viewBox="0 0 32 32" fill="none" xmlns="http://www.w3.org/2000/svg">
<path d="M16 2L12 8L17 9L16 14L20 8L15 7L16 2ZM10 15.5625C9.88125 15.5625 9.3875 15.75 9.0125 15.9812C8.8375 16.0875 8.68125 16.2 8.5625 16.2812V23.7188C8.68125 23.8 8.8375 23.9125 9.0125 24.0187C9.3875 24.25 9.88125 24.4375 10 24.4375C10.1187 24.4375 10.6125 24.25 10.9875 24.0187C11.3562 23.7875 11.65 23.5625 11.65 23.5625L11.8062 23.4375H12.5625V16.5625H11.8062L11.65 16.4375C11.65 16.4375 11.3562 16.2125 10.9875 15.9812C10.6125 15.75 10.1187 15.5625 10 15.5625ZM22 15.5625C21.8813 15.5625 21.3875 15.75 21.0125 15.9812C20.6438 16.2125 20.35 16.4375 20.35 16.4375L20.1938 16.5625H19.4375V23.4375H20.1938L20.35 23.5625C20.35 23.5625 20.6438 23.7875 21.0125 24.0187C21.3875 24.25 21.8813 24.4375 22 24.4375C22.1187 24.4375 22.6125 24.25 22.9875 24.0187C23.1625 23.9125 23.3188 23.8 23.4375 23.7188V16.2812C23.3188 16.2 23.1625 16.0875 22.9875 15.9812C22.6125 15.75 22.1187 15.5625 22 15.5625ZM13.6875 16.5625V23.4375H14.5625V16.5625H13.6875ZM15.6875 16.5625V23.4375H18.3125V16.5625H15.6875ZM5.96875 19.4375C4.79375 19.4375 3.68125 20.0125 2.8475 20.8563C2.01375 21.6938 1.4375 22.8125 1.4375 24V30.625H2.5625V24C2.5625 23.1875 2.98625 22.3062 3.645 21.6437C4.30312 20.9875 5.175 20.5625 5.96875 20.5625H7.4375V19.4375H5.96875ZM24.5625 19.4375V20.5625H25.9937C26.8125 20.5625 27.6875 20.9875 28.35 21.65C29.0125 22.3125 29.4375 23.1875 29.4375 24V30.625H30.5625V24C30.5625 22.8125 29.9875 21.6875 29.1437 20.85C28.3062 20.0125 27.1812 19.4375 25.9937 19.4375H24.5625Z" fill="#1E1E1E"/>
</svg>
