<svg width="32" height="32" viewBox="0 0 32 32" fill="none" xmlns="http://www.w3.org/2000/svg">
<path d="M16.5947 7.91333C13.9013 7.91333 9.05334 10.0187 9.65201 15.1693" stroke="#1E1E1E" stroke-width="0.666667" stroke-linecap="round" stroke-linejoin="round"/>
<path d="M14.0813 18.1214C19.3333 19.7374 18.0086 24.0867 15.4053 24.0867C11.298 24.0867 9.68197 21.9141 9.68197 21.9141L6.53931 25.4827C9.70397 27.8394 11.0286 28.3334 14.036 28.3334C17.0433 28.3334 23.4626 26.0221 23.4626 19.9401C23.4626 17.3587 21.3306 15.0461 17.9193 13.8787C12.6666 12.2627 13.9913 7.91341 16.5946 7.91341C20.702 7.91341 22.318 10.0861 22.318 10.0861L25.4606 6.51741C22.296 4.16008 20.9713 3.66675 17.964 3.66675C14.9566 3.66675 8.53731 5.97808 8.53731 12.0601C8.53731 14.6414 10.6693 16.9534 14.0813 18.1214Z" stroke="#1E1E1E" stroke-width="0.666667" stroke-linecap="round" stroke-linejoin="round"/>
<path d="M15.4053 24.0866C18.0987 24.0866 22.9467 21.9812 22.348 16.8306" stroke="#1E1E1E" stroke-width="0.666667" stroke-linecap="round" stroke-linejoin="round"/>
</svg>
