<svg width="32" height="32" viewBox="0 0 32 32" fill="none" xmlns="http://www.w3.org/2000/svg">
<path d="M27.3867 13.312V18.8093C27.3966 18.9826 27.3574 19.1552 27.2734 19.3072C27.1894 19.4591 27.0641 19.5842 26.912 19.668L17.4053 25.0333C16.9869 25.2691 16.5149 25.3934 16.0345 25.3941C15.5542 25.3948 15.0818 25.2719 14.6627 25.0373L5.09334 19.6693C4.93827 19.5839 4.81113 19.4556 4.72717 19.2997C4.64321 19.1439 4.60601 18.9671 4.62001 18.7906V13.3306C4.60631 13.1568 4.64228 12.9827 4.72372 12.8286C4.80516 12.6744 4.92872 12.5466 5.08001 12.46L14.6213 6.89729C15.05 6.64791 15.5373 6.51688 16.0332 6.51758C16.5292 6.51828 17.016 6.6507 17.444 6.90129L26.9267 12.4613C27.0745 12.5466 27.1957 12.6713 27.2767 12.8215C27.3577 12.9718 27.3953 13.1416 27.3853 13.312H27.3867Z" stroke="#1E1E1E" stroke-width="1.33333"/>
<path d="M5.09334 14.0774C4.95026 13.997 4.83095 13.8802 4.74748 13.7389C4.66401 13.5976 4.61934 13.4367 4.61798 13.2726C4.61663 13.1085 4.65864 12.9469 4.73977 12.8042C4.8209 12.6615 4.93827 12.5428 5.08001 12.4601L14.6227 6.89739C15.0512 6.64826 15.5382 6.51737 16.0339 6.51807C16.5296 6.51877 17.0162 6.65105 17.444 6.90139L26.9267 12.4614C27.0681 12.5442 27.1852 12.6629 27.2661 12.8055C27.347 12.948 27.3889 13.1093 27.3875 13.2732C27.3862 13.4371 27.3416 13.5978 27.2584 13.739C27.1751 13.8802 27.0561 13.9969 26.9133 14.0774L17.404 19.4414C16.9857 19.677 16.5139 19.8011 16.0339 19.8018C15.5538 19.8025 15.0816 19.6798 14.6627 19.4454L5.09334 14.0774Z" stroke="#1E1E1E" stroke-width="1.33333"/>
</svg>
