<svg width="833" height="818" viewBox="0 0 833 818" fill="none" xmlns="http://www.w3.org/2000/svg">
<path d="M270.866 247.646C270.866 251.774 267.493 255.127 263.342 255.127C259.186 255.127 255.813 251.774 255.813 247.646C255.813 243.514 259.186 240.16 263.342 240.16C267.493 240.16 270.866 243.514 270.866 247.646Z" fill="#98012E" fill-opacity="0.1"/>
<path d="M292.561 396.901C292.561 401.033 289.187 404.387 285.036 404.387C280.88 404.387 277.507 401.033 277.507 396.901C277.507 392.764 280.88 389.42 285.036 389.42C289.187 389.42 292.561 392.764 292.561 396.901Z" fill="#98012E" fill-opacity="0.1"/>
<path d="M410.98 284.188C410.98 286.833 408.827 288.979 406.166 288.979C403.506 288.979 401.343 286.833 401.343 284.188C401.343 281.538 403.506 279.397 406.166 279.397C408.827 279.397 410.98 281.538 410.98 284.188Z" fill="#98012E" fill-opacity="0.1"/>
<path d="M445.193 83.0702C445.193 87.2024 441.83 90.5512 437.669 90.5512C433.512 90.5512 430.139 87.2024 430.139 83.0702C430.139 78.9379 433.512 75.5842 437.669 75.5842C441.83 75.5842 445.193 78.9379 445.193 83.0702Z" fill="#98012E" fill-opacity="0.1"/>
<path d="M289.85 119.168C289.85 121.813 287.697 123.959 285.036 123.959C282.371 123.959 280.218 121.813 280.218 119.168C280.218 116.523 282.371 114.377 285.036 114.377C287.697 114.377 289.85 116.523 289.85 119.168Z" fill="#98012E" fill-opacity="0.1"/>
<path d="M172.781 340.178C172.781 342.823 170.627 344.964 167.962 344.964C165.302 344.964 163.148 342.823 163.148 340.178C163.148 337.533 165.302 335.382 167.962 335.382C170.627 335.382 172.781 337.533 172.781 340.178Z" fill="#98012E" fill-opacity="0.1"/>
<path d="M167.962 188.417C167.962 191.063 165.804 193.208 163.148 193.208C160.488 193.208 158.325 191.063 158.325 188.417C158.325 185.767 160.488 183.626 163.148 183.626C165.804 183.626 167.962 185.767 167.962 188.417Z" fill="#98012E" fill-opacity="0.1"/>
<path d="M476.941 492.667C476.941 495.317 474.783 497.463 472.122 497.463C469.462 497.463 467.309 495.317 467.309 492.667C467.309 490.022 469.462 487.881 472.122 487.881C474.783 487.881 476.941 490.022 476.941 492.667Z" fill="#98012E" fill-opacity="0.1"/>
<path d="M463.72 396.901C463.72 401.033 460.347 404.387 456.19 404.387C452.039 404.387 448.666 401.033 448.666 396.901C448.666 392.764 452.039 389.42 456.19 389.42C460.347 389.42 463.72 392.764 463.72 396.901Z" fill="#98012E" fill-opacity="0.1"/>
<path d="M255.813 566.074C255.813 570.206 252.44 573.56 248.288 573.56C244.132 573.56 240.759 570.206 240.759 566.074C240.759 561.942 244.132 558.593 248.288 558.593C252.44 558.593 255.813 561.942 255.813 566.074Z" fill="#98012E" fill-opacity="0.1"/>
<path d="M57.0413 487.881C57.0413 492.008 53.6732 495.362 49.5171 495.362C45.361 495.362 41.9879 492.008 41.9879 487.881C41.9879 483.749 45.361 480.395 49.5171 480.395C53.6732 480.395 57.0413 483.749 57.0413 487.881Z" fill="#98012E" fill-opacity="0.1"/>
<path d="M38.4192 296.465C38.4192 300.592 35.0461 303.941 30.8899 303.941C26.7338 303.941 23.3657 300.592 23.3657 296.465C23.3657 292.328 26.7338 288.979 30.8899 288.979C35.0461 288.979 38.4192 292.328 38.4192 296.465Z" fill="#98012E" fill-opacity="0.1"/>
<path d="M585.974 223.781C585.974 227.909 582.606 231.262 578.45 231.262C574.294 231.262 570.921 227.909 570.921 223.781C570.921 219.644 574.294 216.295 578.45 216.295C582.606 216.295 585.974 219.644 585.974 223.781Z" fill="#98012E" fill-opacity="0.1"/>
<path d="M158.324 475.609C158.324 478.254 156.171 480.395 153.511 480.395C150.85 480.395 148.697 478.254 148.697 475.609C148.697 472.959 150.85 470.818 153.511 470.818C156.171 470.818 158.324 472.959 158.324 475.609Z" fill="#98012E" fill-opacity="0.1"/>
<path d="M153.511 645.904C153.511 648.549 151.353 650.69 148.697 650.69C146.032 650.69 143.874 648.549 143.874 645.904C143.874 643.254 146.032 641.113 148.697 641.113C151.353 641.113 153.511 643.254 153.511 645.904Z" fill="#98012E" fill-opacity="0.1"/>
<path d="M360.243 492.667C360.243 495.317 358.085 497.463 355.419 497.463C352.759 497.463 350.606 495.317 350.606 492.667C350.606 490.022 352.759 487.881 355.419 487.881C358.085 487.881 360.243 490.022 360.243 492.667Z" fill="#98012E" fill-opacity="0.1"/>
<path d="M388.402 607.591C388.402 610.236 386.239 612.382 383.579 612.382C380.918 612.382 378.765 610.236 378.765 607.591C378.765 604.951 380.918 602.805 383.579 602.805C386.239 602.805 388.402 604.951 388.402 607.591Z" fill="#98012E" fill-opacity="0.1"/>
<path d="M383.579 188.417C383.579 191.063 381.425 193.208 378.765 193.208C376.1 193.208 373.941 191.063 373.941 188.417C373.941 185.767 376.1 183.626 378.765 183.626C381.425 183.626 383.579 185.767 383.579 188.417Z" fill="#98012E" fill-opacity="0.1"/>
<path d="M549.919 321.758C549.919 324.403 547.766 326.549 545.106 326.549C542.445 326.549 540.292 324.403 540.292 321.758C540.292 319.113 542.445 316.972 545.106 316.972C547.766 316.972 549.919 319.113 549.919 321.758Z" fill="#98012E" fill-opacity="0.1"/>
<path d="M493.611 211.504C493.611 214.149 491.457 216.295 488.797 216.295C486.137 216.295 483.973 214.149 483.973 211.504C483.973 208.859 486.137 206.713 488.797 206.713C491.457 206.713 493.611 208.859 493.611 211.504Z" fill="#98012E" fill-opacity="0.1"/>
<path d="M554.743 114.376C554.743 117.026 552.59 119.167 549.919 119.167C547.259 119.167 545.106 117.026 545.106 114.376C545.106 111.731 547.259 109.59 549.919 109.59C552.59 109.59 554.743 111.731 554.743 114.376Z" fill="#98012E" fill-opacity="0.1"/>
<path d="M350.606 20.4521C350.606 23.0922 348.453 25.2432 345.792 25.2432C343.127 25.2432 340.968 23.0922 340.968 20.4521C340.968 17.8071 343.127 15.6611 345.792 15.6611C348.453 15.6611 350.606 17.8071 350.606 20.4521Z" fill="#98012E" fill-opacity="0.1"/>
<path d="M195.102 89.3334C195.102 92.6372 192.407 95.3222 189.079 95.3222C185.751 95.3222 183.056 92.6372 183.056 89.3334C183.056 86.0246 185.751 83.3496 189.079 83.3496C192.407 83.3496 195.102 86.0246 195.102 89.3334Z" fill="#98012E" fill-opacity="0.1"/>
<path d="M598.021 437.415C598.021 440.724 595.326 443.404 591.998 443.404C588.67 443.404 585.974 440.724 585.974 437.415C585.974 434.112 588.67 431.432 591.998 431.432C595.326 431.432 598.021 434.112 598.021 437.415Z" fill="#98012E" fill-opacity="0.1"/>
<path d="M684.497 309.93C684.497 313.239 681.801 315.919 678.478 315.919C675.15 315.919 672.455 313.239 672.455 309.93C672.455 306.626 675.15 303.941 678.478 303.941C681.801 303.941 684.497 306.626 684.497 309.93Z" fill="#98012E" fill-opacity="0.1"/>
<path d="M684.496 141.266C684.496 144.575 681.801 147.255 678.478 147.255C675.15 147.255 672.46 144.575 672.46 141.266C672.46 137.962 675.15 135.277 678.478 135.277C681.801 135.277 684.496 137.962 684.496 141.266Z" fill="#98012E" fill-opacity="0.1"/>
<path d="M519.572 20.4524C519.572 23.7562 516.876 26.4362 513.548 26.4362C510.225 26.4362 507.525 23.7562 507.525 20.4524C507.525 17.1436 510.225 14.4636 513.548 14.4636C516.876 14.4636 519.572 17.1436 519.572 20.4524Z" fill="#98012E" fill-opacity="0.1"/>
<path d="M551.129 589.176C551.129 592.485 548.434 595.16 545.106 595.16C541.783 595.16 539.082 592.485 539.082 589.176C539.082 585.867 541.783 583.187 545.106 583.187C548.434 583.187 551.129 585.867 551.129 589.176Z" fill="#98012E" fill-opacity="0.1"/>
<path d="M302.198 686.783C302.198 689.438 300.04 691.579 297.379 691.579C294.714 691.579 292.56 689.438 292.56 686.783C292.56 684.143 294.714 681.997 297.379 681.997C300.04 681.997 302.198 684.143 302.198 686.783Z" fill="#98012E" fill-opacity="0.1"/>
<path d="M660.097 535.965C660.097 538.615 657.938 540.756 655.283 540.756C652.623 540.756 650.459 538.615 650.459 535.965C650.459 533.32 652.623 531.174 655.283 531.174C657.938 531.174 660.097 533.32 660.097 535.965Z" fill="#98012E" fill-opacity="0.1"/>
<path d="M486.578 705.403C486.578 708.053 484.42 710.199 481.76 710.199C479.094 710.199 476.941 708.053 476.941 705.403C476.941 702.758 479.094 700.617 481.76 700.617C484.42 700.617 486.578 702.758 486.578 705.403Z" fill="#98012E" fill-opacity="0.1"/>
<path d="M767.835 404.388C767.835 407.033 765.677 409.174 763.011 409.174C760.351 409.174 758.198 407.033 758.198 404.388C758.198 401.738 760.351 399.592 763.011 399.592C765.677 399.592 767.835 401.738 767.835 404.388Z" fill="#98012E" fill-opacity="0.1"/>
<path d="M510.341 22.1243L512.434 22.1592L512.65 20.2777L510.341 22.1243ZM350.811 21.181L385.918 46.6633L506.32 23.5466L506.41 23.4668L350.811 21.181ZM346.861 20.0532L323.054 58.7356L384.025 47.0276L346.861 20.0532ZM344.045 21.9396L198.691 82.6109L321.176 59.095L344.045 21.9396ZM387.474 47.7961L439.245 85.3707L436.825 79.2023L503.971 25.4281L387.474 47.7961ZM188.813 86.7381L192.075 86.9777L189.997 86.2441L188.813 86.7381ZM197.406 87.3819L299.101 94.9677L320.178 60.7169L192.352 85.2609L191.93 85.4406L197.406 87.3819ZM300.682 95.0825L372.476 100.442L438.492 86.5585L385.581 48.1605L322.055 60.3526L300.682 95.0825ZM377.505 100.812L428.518 104.62L438.356 88.0207L377.505 100.812ZM430.089 104.734L437.418 105.283L440.439 88.405L440.168 87.7263L430.089 104.734ZM438.833 105.388L447.351 106.022L441.418 90.9153L438.833 105.388ZM448.907 106.137L502.229 110.114L512.238 23.8411L506.932 24.8591L438.517 79.6514L440.429 84.5223L441.498 82.7107L442.804 83.1948L441.895 88.2603L448.907 106.137ZM202.431 89.1586L284.73 118.319L298.278 96.3102L202.431 89.1586ZM299.859 96.43L286.226 118.573L286.668 118.484L367.536 101.475L299.859 96.43ZM551.525 111.377L675.231 141.95L677.504 138.711L515.114 20.662L551.525 111.377ZM679.186 143.666V145.233L679.813 143.177L679.186 143.666ZM675.838 143.547L674.392 145.593L676.751 143.771L675.838 143.547ZM189.34 88.1854L219.206 155.035L282.853 119.856L285.623 121.857L286.191 118.628L285.337 120.021L197.11 88.7643L189.34 88.1854ZM189.254 91.4493L164.734 185.139L217.966 155.719L189.254 91.4493ZM286.622 124.313L275.896 185.223L370.262 184.729L286.622 124.313ZM219.778 156.323L232.793 185.453L274.465 185.233L285.352 123.394L282.747 121.518L219.778 156.323ZM218.538 157.006L166.441 185.797L231.252 185.458L218.538 157.006ZM374.569 186.107L375.161 186.531L375.959 186.097L374.569 186.107ZM376.421 187.444L378.549 188.981L427.72 105.967L372.571 101.855L287.425 119.756L286.893 122.776L372.646 184.719L378.76 184.684L379.101 185.997L376.421 187.444ZM381.009 187.584L420.944 197.461L437.172 106.671L429.291 106.082L381.009 187.584ZM449.474 107.589L489.455 209.463L490.474 211.484L490.479 211.424L502.063 111.512L449.474 107.589ZM503.635 110.219L550.466 113.718L550.597 114.182L581.01 217.797L670.633 148.497L674.372 143.182L550.481 112.56L550.351 112.23L513.93 21.4955L503.635 110.219ZM491.959 210.885L578.239 219.938L579.81 218.721L549.382 115.04L503.474 111.616L491.959 210.885ZM582.651 223.397L604.17 243.225L667.912 152.385L581.437 219.25L582.651 223.397ZM163.956 188.093L257.093 245.156L257.846 244.991L231.875 186.86L164.187 187.215L163.956 188.093ZM275.65 186.631L265.229 245.825L373.786 187.27L372.189 186.122L275.65 186.631ZM259.447 245.106L262.865 248.999L262.559 247.272L263.643 246.678L274.219 186.636L233.416 186.85L259.447 245.106ZM164.875 190.294L204.514 256.914L255.125 245.6L164.875 190.294ZM163.951 191.507L166.3 265.458L203.068 257.243L163.951 191.507ZM605.219 244.183L639.221 275.514L677.775 149.835V144.754L671.672 149.48L605.219 244.183ZM422.068 199.182L408.054 277.61L483.145 214.284L422.068 199.182ZM382.414 189.376L404.189 280.869L406.367 279.033L420.703 198.843L382.414 189.376ZM265.766 252.288L402.738 282.092L402.979 281.892L380.677 188.153L378.976 191.023L375.051 188.183L264.918 247.592L264.486 250.027L264.672 251.05L265.766 252.288ZM404.575 282.491L405.71 282.741L405.986 281.199L404.55 282.406L404.575 282.491ZM407.085 283.035L409.017 283.459L507.098 247.691L488.165 210.027L447.923 107.474L438.582 106.776L422.314 197.8L486.157 213.59L407.667 279.776L407.085 283.035ZM35.5479 290.401L35.8692 294.628L164.895 265.777L162.486 189.835L35.5479 290.401ZM33.5703 296.58L34.6244 296.919L34.5842 296.355L33.5703 296.58ZM267.322 254.064L312.267 305.129L401.016 283.544L401.388 283.235L267.322 254.064ZM640.365 276.572L676.38 309.75L677.775 309.63V154.641L640.365 276.572ZM265.159 253.73L276.041 313.942L310.716 305.503L265.159 253.73ZM639.908 278.059L628.891 313.997L674.493 309.92L639.908 278.059ZM509.056 248.47L543.268 316.537L573.586 224.934L509.056 248.47ZM604.401 245.341L551.37 320.924L627.37 314.132L638.764 277.001L604.401 245.341ZM205.267 258.187L243.199 321.927L274.666 314.277L263.638 253.266L262.529 253.016L262.86 251.125L261.374 249.423L256.842 246.653L205.267 258.187ZM36.075 297.378L167.224 339.2L164.94 267.205L35.9696 296.041L36.075 297.378ZM313.311 306.321L345.004 342.334L404.013 285.286L403.566 284.353L403.406 283.669L403.119 283.609L401.674 284.827L401.513 284.872L313.311 306.321ZM173.207 340.393L283.897 393.069L242.516 323.534L173.207 340.393ZM276.287 315.32L290.663 394.865L343.99 343.317L311.765 306.691L276.287 315.32ZM285.689 393.922L289.383 395.674L274.917 315.654L243.952 323.19L285.779 393.473L285.689 393.922ZM405.73 285.585L460.557 395.754L541.672 321.363L542.646 318.429L507.731 248.954L409.123 284.917L406.839 284.422L406.814 284.532L405.73 285.585ZM285.272 396.038L287.009 398.399L288.6 396.857L285.408 395.34L285.272 396.038ZM544.162 318.319L545.738 321.448L592.228 428.687L626.928 315.579L548.479 322.591L603.357 244.383L581.406 224.165L580.232 220.173L578.656 221.391L578.375 221.366L490.815 212.168L508.423 247.207L575.835 222.618L544.162 318.319ZM593.092 430.683L595.667 436.617L759.131 403.923L681.932 310.663L679.186 310.913V314.242L675.883 311.202L628.444 315.449L593.092 430.683ZM36.1854 298.885L50.1647 483.01L152.853 474.955L163.976 343.612L165.382 343.731L154.324 474.296L283.661 396.902L284.098 394.716L169.046 339.958L241.768 322.272L203.826 258.506L166.346 266.89L168.705 341.146L36.1854 298.885ZM345.933 343.392L469.899 484.263L454.203 396.952L589.814 436.552L591.591 430.763L544.463 322.037L543.539 320.205L542.897 322.152L542.761 322.272L460.126 398.054L404.666 286.608L345.933 343.392ZM471.691 486.309L472.343 487.043L594.312 437.041L592.454 432.754L590.758 438.289L455.995 398.933L471.691 486.309ZM288.118 399.282L471.179 491.414L470.376 486.938L344.919 344.375L290.969 396.527L291.255 398.124L289.955 397.505L288.118 399.282ZM289.222 401.413L356.413 492.832L257.233 562.516L472.097 494.633L472.288 494.683L653.827 537.413L594.944 438.299L472.117 488.65L473.066 493.93L471.801 493.296L289.222 401.413ZM284.901 397.91L252.038 564.153L252.796 563.918L354.431 492.507L286.452 400.016L285.719 399.646L285.985 399.382L284.901 397.91ZM154.66 475.739L248.474 565.281L250.507 564.637L283.294 398.758L154.66 475.739ZM249.905 567.656L250.196 566.204L248.098 566.868L247.797 566.578L153.25 476.333L48.8646 484.522L34.7398 298.426L28.2095 296.345L34.4738 294.943L34.0823 289.767L162.079 188.363L162.014 188.248L160.598 189.031L159.916 187.804L161.291 187.04L160.573 185.827L163.098 185.817L188.667 88.1355L185.786 87.9159L185.565 86.5734L188.025 85.5454L186.408 84.9764L191.945 83.9134L347.529 18.9652L347.062 19.7238L508.137 22.0893L512.88 18.2915L512.986 17.3782L513.528 17.7724L513.849 17.5179L514.125 18.2066L679.452 138.386L676.696 142.314L678.167 142.673L682.459 139.354L679.186 150.044V309.5L682.549 309.201L682.785 309.486L761.716 404.842L596.354 437.91L656.734 539.534L472.152 496.091L253.429 565.186L249.905 567.656Z" fill="#98012E" fill-opacity="0.1"/>
<path d="M577.873 481.044L654.701 534.703L677.494 315.295L592.63 437.735L577.873 481.044ZM33.1588 300.977L148.17 642.157L156.267 479.123L33.1588 300.977ZM248.434 569.418L151.302 644.762L380.386 607.407L248.434 569.418ZM147.914 647.397L147.984 646L30.2174 296.685L31.4722 296.066L157.697 478.718L149.47 644.408L248.138 567.866L248.484 567.971L383.313 606.788L472.142 491.484L540.071 587.644L576.206 481.588L456.266 397.805L354.571 494.449L378.996 188.363L380.406 188.473L356.278 490.891L456.125 395.998L576.673 480.206L591.415 437.022L677.896 312.241L679.181 312.71L655.86 537.229L577.406 482.426L540.508 590.713L472.097 493.855L383.85 608.4L383.534 608.31L148.988 646.564L147.914 647.397Z" fill="#98012E" fill-opacity="0.1"/>
<path d="M481.925 706.566L383.564 608.565L297.088 688.006L250.281 566.329L251.596 565.825L297.665 685.565L383.599 606.623L384.081 607.097L481.589 704.245L544.142 589.475L355.224 493.356L153.445 474.596L153.576 473.198L355.625 491.983L355.746 492.048L546.069 588.882L481.925 706.566Z" fill="#98012E" fill-opacity="0.1"/>
<path d="M295.221 682.865L49.0755 488.435L49.7782 487.227L245.187 565.385L544.98 588.467L659.801 535.332L660.398 536.599L545.236 589.889L545.05 589.874L244.86 566.763L244.76 566.728L53.7536 490.326L296.099 681.767L295.221 682.865Z" fill="#98012E" fill-opacity="0.1"/>
<path d="M297.635 689.254L297.118 687.951L544.162 590.744L455.548 393.493L456.838 392.919L546.054 591.512L297.635 689.254Z" fill="#98012E" fill-opacity="0.1"/>
<path d="M315.7 344.964C315.7 352.38 309.652 358.389 302.198 358.389C294.744 358.389 288.7 352.38 288.7 344.964C288.7 337.553 294.744 331.544 302.198 331.544C309.652 331.544 315.7 337.553 315.7 344.964Z" fill="#98012E" fill-opacity="0.1"/>
<path d="M553.789 188.418C553.789 195.829 547.746 201.837 540.292 201.837C532.833 201.837 526.789 195.829 526.789 188.418C526.789 181.001 532.833 174.993 540.292 174.993C547.746 174.993 553.789 181.001 553.789 188.418Z" fill="#98012E" fill-opacity="0.1"/>
<path d="M156.251 292.517C156.251 296.664 152.868 300.028 148.697 300.028C144.516 300.028 141.133 296.664 141.133 292.517C141.133 288.37 144.516 285.006 148.697 285.006C152.868 285.006 156.251 288.37 156.251 292.517Z" fill="#98012E" fill-opacity="0.1"/>
<path d="M352.217 159.422C352.217 169.448 344.045 177.578 333.961 177.578C323.872 177.578 315.7 169.448 315.7 159.422C315.7 149.396 323.872 141.266 333.961 141.266C344.045 141.266 352.217 149.396 352.217 159.422Z" fill="#98012E" fill-opacity="0.1"/>
<path d="M531.809 470.818C531.809 480.839 523.632 488.969 513.553 488.969C503.464 488.969 495.292 480.839 495.292 470.818C495.292 460.792 503.464 452.662 513.553 452.662C523.632 452.662 531.809 460.792 531.809 470.818Z" fill="#98012E" fill-opacity="0.1"/>
<path d="M174.512 531.175C174.512 541.201 166.331 549.331 156.251 549.331C146.167 549.331 137.991 541.201 137.991 531.175C137.991 521.149 146.167 513.019 156.251 513.019C166.331 513.019 174.512 521.149 174.512 531.175Z" fill="#98012E" fill-opacity="0.1"/>
<path d="M110.945 159.422C110.945 166.833 104.897 172.846 97.4431 172.846C89.9892 172.846 83.9457 166.833 83.9457 159.422C83.9457 152.01 89.9892 146.002 97.4431 146.002C104.897 146.002 110.945 152.01 110.945 159.422Z" fill="#98012E" fill-opacity="0.1"/>
<path d="M373.746 573.561C373.746 580.972 367.697 586.98 360.243 586.98C352.789 586.98 346.741 580.972 346.741 573.561C346.741 566.144 352.789 560.136 360.243 560.136C367.697 560.136 373.746 566.144 373.746 573.561Z" fill="#98012E" fill-opacity="0.1"/>
<mask id="mask0_30_153" style="mask-type:luminance" maskUnits="userSpaceOnUse" x="403" y="-10" width="29" height="28">
<path d="M403.28 -9.97559H431.55V17.972H403.28V-9.97559Z" fill="white"/>
</mask>
<g mask="url(#mask0_30_153)">
<path d="M431.183 3.48454C431.183 10.9006 425.135 16.9094 417.681 16.9094C410.227 16.9094 404.184 10.9006 404.184 3.48454C404.184 -3.92657 410.227 -9.9353 417.681 -9.9353C425.135 -9.9353 431.183 -3.92657 431.183 3.48454Z" fill="#98012E" fill-opacity="0.1"/>
</g>
<path d="M284.369 789.62C284.369 797.036 278.32 803.045 270.866 803.045C263.413 803.045 257.369 797.036 257.369 789.62C257.369 782.204 263.413 776.196 270.866 776.196C278.32 776.196 284.369 782.204 284.369 789.62Z" fill="#98012E" fill-opacity="0.1"/>
<path d="M639.512 315.918C639.512 322.521 634.131 327.871 627.495 327.871C620.855 327.871 615.469 322.521 615.469 315.918C615.469 309.315 620.855 303.97 627.495 303.97C634.131 303.97 639.512 309.315 639.512 315.918Z" fill="#98012E" fill-opacity="0.1"/>
<path d="M618.455 668.572C618.455 675.983 612.417 681.997 604.958 681.997C597.504 681.997 591.455 675.983 591.455 668.572C591.455 661.161 597.504 655.152 604.958 655.152C612.417 655.152 618.455 661.161 618.455 668.572Z" fill="#98012E" fill-opacity="0.1"/>
<path d="M278.42 483.12C278.42 487.267 275.037 490.631 270.866 490.631C266.695 490.631 263.312 487.267 263.312 483.12C263.312 478.968 266.695 475.609 270.866 475.609C275.037 475.609 278.42 478.968 278.42 483.12Z" fill="#98012E" fill-opacity="0.1"/>
<path d="M118.5 443.404C118.5 447.552 115.117 450.915 110.946 450.915C106.774 450.915 103.391 447.552 103.391 443.404C103.391 439.257 106.774 435.894 110.946 435.894C115.117 435.894 118.5 439.257 118.5 443.404Z" fill="#98012E" fill-opacity="0.1"/>
<mask id="mask1_30_153" style="mask-type:luminance" maskUnits="userSpaceOnUse" x="0" y="369" width="17" height="16">
<path d="M0 369.313H16.499V384.644H0V369.313Z" fill="white"/>
</mask>
<g mask="url(#mask1_30_153)">
<path d="M15.4501 376.889C15.4501 381.036 12.0669 384.4 7.89576 384.4C3.72457 384.4 0.341438 381.036 0.341438 376.889C0.341438 372.742 3.72457 369.378 7.89576 369.378C12.0669 369.378 15.4501 372.742 15.4501 376.889Z" fill="#98012E" fill-opacity="0.1"/>
</g>
<path d="M240.759 46.793C240.759 50.9402 237.376 54.3039 233.205 54.3039C229.034 54.3039 225.651 50.9402 225.651 46.793C225.651 42.6408 229.034 39.2771 233.205 39.2771C237.376 39.2771 240.759 42.6408 240.759 46.793Z" fill="#98012E" fill-opacity="0.1"/>
<path d="M72.1501 619.899C72.1501 624.046 68.767 627.41 64.5958 627.41C60.4246 627.41 57.0415 624.046 57.0415 619.899C57.0415 615.751 60.4246 612.383 64.5958 612.383C68.767 612.383 72.1501 615.751 72.1501 619.899Z" fill="#98012E" fill-opacity="0.1"/>
<path d="M381.3 273.488C381.3 277.635 377.917 280.999 373.746 280.999C369.574 280.999 366.186 277.635 366.186 273.488C366.186 269.34 369.574 265.977 373.746 265.977C377.917 265.977 381.3 269.34 381.3 273.488Z" fill="#98012E" fill-opacity="0.1"/>
<path d="M404.284 450.92C404.284 455.067 400.901 458.431 396.725 458.431C392.554 458.431 389.17 455.067 389.17 450.92C389.17 446.768 392.554 443.404 396.725 443.404C400.901 443.404 404.284 446.768 404.284 450.92Z" fill="#98012E" fill-opacity="0.1"/>
<path d="M511.189 110.219C511.189 114.372 507.811 117.735 503.64 117.735C499.463 117.735 496.08 114.372 496.08 110.219C496.08 106.072 499.463 102.708 503.64 102.708C507.811 102.708 511.189 106.072 511.189 110.219Z" fill="#98012E" fill-opacity="0.1"/>
<path d="M225.651 691.579C225.651 695.726 222.268 699.09 218.096 699.09C213.92 699.09 210.537 695.726 210.537 691.579C210.537 687.427 213.92 684.068 218.096 684.068C222.268 684.068 225.651 687.427 225.651 691.579Z" fill="#98012E" fill-opacity="0.1"/>
<path d="M411.738 710.199C411.738 714.346 408.355 717.705 404.184 717.705C400.012 717.705 396.629 714.346 396.629 710.199C396.629 706.047 400.012 702.683 404.184 702.683C408.355 702.683 411.738 706.047 411.738 710.199Z" fill="#98012E" fill-opacity="0.1"/>
<path d="M527.131 789.62C527.131 793.768 523.743 797.131 519.571 797.131C515.4 797.131 512.017 793.768 512.017 789.62C512.017 785.473 515.4 782.104 519.571 782.104C523.743 782.104 527.131 785.473 527.131 789.62Z" fill="#98012E" fill-opacity="0.1"/>
<path d="M514.146 607.591C514.146 613.366 509.442 618.042 503.64 618.042C497.832 618.042 493.129 613.366 493.129 607.591C493.129 601.822 497.832 597.146 503.64 597.146C509.442 597.146 514.146 601.822 514.146 607.591Z" fill="#98012E" fill-opacity="0.1"/>
<path d="M647.066 475.609C647.066 479.756 643.688 483.12 639.517 483.12C635.341 483.12 631.958 479.756 631.958 475.609C631.958 471.457 635.341 468.098 639.517 468.098C643.688 468.098 647.066 471.457 647.066 475.609Z" fill="#98012E" fill-opacity="0.1"/>
<path d="M503.635 309.93C503.635 314.077 500.252 317.441 496.08 317.441C491.909 317.441 488.526 314.077 488.526 309.93C488.526 305.783 491.909 302.419 496.08 302.419C500.252 302.419 503.635 305.783 503.635 309.93Z" fill="#98012E" fill-opacity="0.1"/>
<path d="M667.651 83.3498C667.651 87.497 664.273 90.8607 660.097 90.8607C655.926 90.8607 652.543 87.497 652.543 83.3498C652.543 79.1926 655.926 75.8389 660.097 75.8389C664.273 75.8389 667.651 79.1926 667.651 83.3498Z" fill="#98012E" fill-opacity="0.1"/>
<path d="M720.451 595.16C720.451 599.307 717.068 602.676 712.892 602.676C708.721 602.676 705.342 599.307 705.342 595.16C705.342 591.013 708.721 587.649 712.892 587.649C717.068 587.649 720.451 591.013 720.451 595.16Z" fill="#98012E" fill-opacity="0.1"/>
<path d="M820.018 513.019C820.018 517.171 816.635 520.53 812.463 520.53C808.292 520.53 804.909 517.171 804.909 513.019C804.909 508.872 808.292 505.508 812.463 505.508C816.635 505.508 820.018 508.872 820.018 513.019Z" fill="#98012E" fill-opacity="0.1"/>
<path d="M712.897 702.683C712.897 706.831 709.514 710.199 705.342 710.199C701.166 710.199 697.783 706.831 697.783 702.683C697.783 698.536 701.166 695.172 705.342 695.172C709.514 695.172 712.897 698.536 712.897 702.683Z" fill="#98012E" fill-opacity="0.1"/>
<path d="M749.062 384.4C749.062 388.547 745.679 391.911 741.508 391.911C737.337 391.911 733.954 388.547 733.954 384.4C733.954 380.253 737.337 376.889 741.508 376.889C745.679 376.889 749.062 380.253 749.062 384.4Z" fill="#98012E" fill-opacity="0.1"/>
<path d="M820.018 303.946C820.018 308.093 816.635 311.457 812.463 311.457C808.292 311.457 804.909 308.093 804.909 303.946C804.909 299.793 808.292 296.43 812.463 296.43C816.635 296.43 820.018 299.793 820.018 303.946Z" fill="#98012E" fill-opacity="0.1"/>
<path d="M741.508 216.295C741.508 220.442 738.125 223.806 733.953 223.806C729.777 223.806 726.399 220.442 726.399 216.295C726.399 212.143 729.777 208.784 733.953 208.784C738.125 208.784 741.508 212.143 741.508 216.295Z" fill="#98012E" fill-opacity="0.1"/>
<path d="M302.71 345.448L301.686 344.485L373.429 268.947L374.458 269.91L302.71 345.448Z" fill="#98012E" fill-opacity="0.1"/>
<path d="M8.24697 369.992L7.55428 368.765L152.125 288.365L152.818 289.588L8.24697 369.992Z" fill="#98012E" fill-opacity="0.1"/>
<path d="M149.229 291.973L299.216 342.309L99.1598 161.917L149.229 291.973ZM301.972 344.714L148.155 293.091L148.034 292.782L96.7806 159.676L97.92 158.903L302.675 343.532L301.972 344.714Z" fill="#98012E" fill-opacity="0.1"/>
<path d="M63.913 612.547L6.80135 375.342L110.173 442.072L96.7003 158.703L97.4532 158.723L326.472 163.414L326.442 164.817L98.181 160.14L111.709 444.742L8.99486 378.436L65.2883 612.223L63.913 612.547Z" fill="#98012E" fill-opacity="0.1"/>
<path d="M266.118 790.424L265.801 790.155L63.5917 619.969L148.165 526.324L149.219 527.257L65.6045 619.824L266.399 788.822L603.607 665.533L604.099 666.856L266.118 790.424Z" fill="#98012E" fill-opacity="0.1"/>
<path d="M218.538 687.332L217.645 686.244L354.978 574.733L355.866 575.821L218.538 687.332Z" fill="#98012E" fill-opacity="0.1"/>
<path d="M504.282 608.47L360.077 574.239L156.106 531.864L156.392 530.491L360.389 572.872L502.997 606.718L512.85 470.763L514.256 470.868L504.282 608.47Z" fill="#98012E" fill-opacity="0.1"/>
<path d="M359.555 573.715L305.767 345.124L307.142 344.804L360.926 573.401L359.555 573.715Z" fill="#98012E" fill-opacity="0.1"/>
<path d="M640.255 476.353L512.916 468.757L512.85 468.168L495.383 307.275L496.783 307.12L514.186 467.435L638.774 474.861L631.255 317.481L632.665 317.411L640.255 476.353Z" fill="#98012E" fill-opacity="0.1"/>
<path d="M270.615 790.588L217.484 699.439L218.704 698.74L271.122 788.652L404.194 709.37L404.555 709.6L519.948 781.515L519.2 782.703L404.179 711.022L270.615 790.588Z" fill="#98012E" fill-opacity="0.1"/>
<path d="M404.214 710.908L404.103 710.893L217.123 689.952L217.273 688.56L404.148 709.485L603.949 668.068L513.503 473.493L514.788 472.899L605.972 669.076L605.098 669.256L404.214 710.908Z" fill="#98012E" fill-opacity="0.1"/>
<path d="M304.12 344.395L513.95 472.26L626.818 315.649L659.269 84.203L504.317 110.818L496.763 307.779L304.12 344.395ZM149.475 295.053L156.889 529.164L234.179 427.19L149.475 295.053ZM234.987 428.453L158.385 529.518L269.822 482.796L234.987 428.453ZM155.604 533.186L147.909 289.987L235.082 425.992L296.983 344.325L297.244 344.275L495.398 306.611L502.952 109.63L660.93 82.4912L628.168 316.188L628.068 316.328L514.336 474.137L513.774 473.798L306.003 347.19L398.03 448.445L271.042 481.074L270.691 479.716L395.425 447.667L301.942 344.814L297.781 345.608L235.896 427.255L271.91 483.439L271.137 483.764L156.693 531.744L155.604 533.186Z" fill="#98012E" fill-opacity="0.1"/>
<path d="M519.928 790.324H277.507V788.921H519.215L607.889 668.158L609.029 668.991L519.928 790.324Z" fill="#98012E" fill-opacity="0.1"/>
<path d="M706.517 700.667L705.106 700.567L712.094 596.557L605.359 669.156L604.561 667.993L713.695 593.767L706.517 700.667Z" fill="#98012E" fill-opacity="0.1"/>
<path d="M712.515 595.754L513.167 468.682L513.93 467.504L710.698 592.929L638.056 474.576L639.663 474.92L814.637 512.335L814.341 513.708L640.973 476.637L713.499 594.801L712.515 595.754Z" fill="#98012E" fill-opacity="0.1"/>
<path d="M404.249 711.108L403.767 710.763L157.757 533.131L219.381 692.952L217.795 692.208L63.7674 620.278L63.913 619.719L110.439 442.561L111.116 442.726L271.037 482.441L270.696 483.799L111.453 444.253L65.4289 619.514L216.806 690.202L154.741 529.219L404.113 709.281L503.906 612.288L396.142 451.31L397.317 450.531L505.723 612.477L404.249 711.108Z" fill="#98012E" fill-opacity="0.1"/>
<path d="M327.064 159.771L325.85 159.072L416.251 4.54219L233.366 47.4717L233.04 46.1093L419.117 2.43115L327.064 159.771Z" fill="#98012E" fill-opacity="0.1"/>
<path d="M419.719 4.90172L504.242 109.845L504.277 109.925L540.533 187.27L658.712 83.6291L419.719 4.90172ZM496.176 310.604L373.194 274.057L373.078 273.718L332.912 158.569L539.097 187.539L503.037 110.594L415.643 2.07202L661.487 83.0652L541.15 188.597L541.482 189.291L335 160.275L374.288 272.919L496.582 309.261L496.176 310.604Z" fill="#98012E" fill-opacity="0.1"/>
<path d="M335.111 162.79L334.689 161.453L501.245 109.55L501.667 110.888L335.111 162.79Z" fill="#98012E" fill-opacity="0.1"/>
<path d="M513.563 473.598L373.279 274.057L98.2162 162.776L98.7482 161.478L374.202 272.919L374.323 273.089L514.723 472.795L513.563 473.598Z" fill="#98012E" fill-opacity="0.1"/>
<path d="M307.152 344.15L305.757 343.946L333.258 159.317L334.654 159.527L307.152 344.15Z" fill="#98012E" fill-opacity="0.1"/>
<path d="M497.365 309.271L626.115 315.154L540.488 189.949L497.365 309.271ZM497.993 310.708L639.582 472.205L740.318 384.504L627.285 316.612L497.993 310.708ZM639.447 474.186L638.985 473.657L496.447 311.072L401.93 448.455L400.765 447.661L495.488 309.984L494.765 309.156L495.89 309.206L540.091 186.885L627.601 314.825L733.457 211.005L734.445 212.008L628.635 315.788L742.697 384.295L639.447 474.186Z" fill="#98012E" fill-opacity="0.1"/>
<path d="M705.955 703.028L704.725 702.344L810.074 515.814L713.805 592.246L712.927 591.153L812.022 512.475L813.081 513.363L705.955 703.028Z" fill="#98012E" fill-opacity="0.1"/>
<path d="M627.541 316.617L627.445 315.214L812.418 303.247L812.503 304.644L627.541 316.617Z" fill="#98012E" fill-opacity="0.1"/>
<path d="M504.804 606.543L603.783 662.733L638.418 477.645L504.804 606.543ZM519.622 790.374L519.351 790.284L217.253 692.043L217.409 691.414L301.144 345.388L111.904 443.699L158.947 530.845L157.702 531.504L109.987 443.115L303.247 342.713L218.935 691.11L519.526 788.867L703.5 702.768L603.05 666.651L603.507 664.19L502.475 606.833L503.148 606.189L640.611 473.568L605.078 663.467L608.808 665.583L608.11 666.805L604.807 664.924L604.657 665.737L707.18 702.598L519.622 790.374Z" fill="#98012E" fill-opacity="0.1"/>
<path d="M360.635 576.226L359.852 575.068L511.716 473.977L270.891 481.099L270.846 479.697L516.575 472.425L360.635 576.226Z" fill="#98012E" fill-opacity="0.1"/>
<path d="M742.206 384.21L811.756 510.289V304.21L734.747 218.237L742.206 384.21ZM811.846 513.358L740.805 384.6L740.8 384.435L733.276 216.904L540.412 189.146L374.062 274.112L373.419 272.864L540.166 187.694L732.648 215.397L659.48 83.6889L660.589 82.8455L741.995 161.623L741.016 162.626L663.018 87.1474L734.4 215.651L734.631 215.681L734.641 216.016L813.166 303.676V513.019L811.846 513.358Z" fill="#98012E" fill-opacity="0.1"/>
<path d="M520.495 792.1L518.999 790.034L362.803 573.969L363.952 573.146L518.648 787.14L502.937 606.753L504.342 606.633L520.495 792.1Z" fill="#98012E" fill-opacity="0.1"/>
<path d="M304.321 127.347L154.113 287.756L332.912 159.307L304.321 127.347ZM154.56 532.108L7.07249 377.044L96.8559 158.998L96.9915 158.888L233.275 45.8197L233.727 46.3288L304.341 125.266L414.413 7.71118L415.452 8.66439L305.285 126.314L335 159.536L334.368 159.991L149.109 293.091L148.175 292.043L303.377 126.294L233.135 47.7661L98.0305 159.851L8.7239 376.734L155.584 531.15L154.56 532.108Z" fill="#98012E" fill-opacity="0.1"/>
<path d="M742.035 384.864L740.976 383.941L811.931 303.482L812.99 304.41L742.035 384.864Z" fill="#98012E" fill-opacity="0.1"/>
<path d="M813.608 514.606L812.077 513.613L494.901 307.784L495.674 306.611L811.314 511.442L733.336 216.73L417.284 4.0684L417.832 2.80078L558.287 33.1589L557.991 34.5263L421.109 4.94177L734.566 215.861L734.631 216.116L813.608 514.606Z" fill="#98012E" fill-opacity="0.1"/>
<path d="M744.901 162.122C744.901 163.988 743.385 165.501 741.508 165.501C739.631 165.501 738.115 163.988 738.115 162.122C738.115 160.26 739.631 158.748 741.508 158.748C743.385 158.748 744.901 160.26 744.901 162.122Z" fill="#98012E" fill-opacity="0.1"/>
<path d="M738.817 216.335L737.407 216.25L740.8 158.708L742.21 158.788L738.817 216.335Z" fill="#98012E" fill-opacity="0.1"/>
<mask id="mask2_30_153" style="mask-type:luminance" maskUnits="userSpaceOnUse" x="412" y="813" width="11" height="10">
<path d="M412.275 813.919H422.555V822.289H412.275V813.919Z" fill="white"/>
</mask>
<g mask="url(#mask2_30_153)">
<path d="M422.113 818.346C422.113 820.777 420.131 822.753 417.681 822.753C415.237 822.753 413.254 820.777 413.254 818.346C413.254 815.916 415.237 813.935 417.681 813.935C420.131 813.935 422.113 815.916 422.113 818.346Z" fill="#98012E" fill-opacity="0.1"/>
</g>
<path d="M148.306 714.606C148.306 717.036 146.318 719.007 143.874 719.007C141.429 719.007 139.441 717.036 139.441 714.606C139.441 712.17 141.429 710.199 143.874 710.199C146.318 710.199 148.306 712.17 148.306 714.606Z" fill="#98012E" fill-opacity="0.1"/>
<path d="M612.894 771.794C612.894 774.224 610.911 776.2 608.456 776.2C606.012 776.2 604.024 774.224 604.024 771.794C604.024 769.358 606.012 767.387 608.456 767.387C610.911 767.387 612.894 769.358 612.894 771.794Z" fill="#98012E" fill-opacity="0.1"/>
<path d="M144.486 716.427L64.0586 620.347L65.1428 619.449L143.266 712.779L152.803 534.603L154.214 534.678L144.486 716.427Z" fill="#98012E" fill-opacity="0.1"/>
<path d="M417.711 819.07L417.546 819.03L270.731 790.309L271.007 788.932L417.656 817.623L519.381 788.942L607.734 771.22L604.25 668.597L605.661 668.552L609.184 772.363L519.707 790.309L417.711 819.07Z" fill="#98012E" fill-opacity="0.1"/>
<path d="M416.983 818.421L405.459 711.507L406.864 711.357L418.384 818.271L416.983 818.421Z" fill="#98012E" fill-opacity="0.1"/>
<path d="M360.163 577.668L304.391 711.188L403.215 709.511L360.163 577.668ZM276.955 713.054L271.87 785.388L302.263 712.62L276.955 713.054ZM271.519 789.89L270.163 789.571L275.539 713.074L143.883 715.305L143.863 713.902L275.64 711.672L301.495 344.001L302.901 344.101L277.055 711.647L302.855 711.212L360.323 573.625L405.147 710.883L303.804 712.6L271.519 789.89Z" fill="#98012E" fill-opacity="0.1"/>
<path d="M608.868 772.363L608.05 771.22L704.318 702.554L511.47 468.543L512.564 467.654L706.361 702.818L705.749 703.253L608.868 772.363Z" fill="#98012E" fill-opacity="0.1"/>
<path d="M776.694 612.382C776.694 614.818 774.712 616.789 772.257 616.789C769.813 616.789 767.83 614.818 767.83 612.382C767.83 609.952 769.813 607.981 772.257 607.981C774.712 607.981 776.694 609.952 776.694 612.382Z" fill="#98012E" fill-opacity="0.1"/>
<mask id="mask3_30_153" style="mask-type:luminance" maskUnits="userSpaceOnUse" x="822" y="392" width="11" height="11">
<path d="M822.186 392.31H832.26V402.531H822.186V392.31Z" fill="white"/>
</mask>
<g mask="url(#mask3_30_153)">
<path d="M831.899 396.901C831.899 399.337 829.911 401.308 827.466 401.308C825.017 401.308 823.034 399.337 823.034 396.901C823.034 394.466 825.017 392.49 827.466 392.49C829.911 392.49 831.899 394.466 831.899 396.901Z" fill="#98012E" fill-opacity="0.1"/>
</g>
<path d="M772.508 613.65L639.005 476.093L640.019 475.12L772.011 611.12L811.771 512.844L826.518 396.817L827.918 396.991L813.151 513.203L813.116 513.283L772.508 613.65Z" fill="#98012E" fill-opacity="0.1"/>
<mask id="mask4_30_153" style="mask-type:luminance" maskUnits="userSpaceOnUse" x="711" y="161" width="122" height="435">
<path d="M711.677 161.064H832.26V595.449H711.677V161.064Z" fill="white"/>
</mask>
<g mask="url(#mask4_30_153)">
<path d="M742.11 385.193L714.533 588.322L783.41 390.903L742.11 385.193ZM713.564 595.389L712.199 595.075L740.9 383.611L783.887 389.555L813.728 304.021L741.583 162.441L742.843 161.807L815.254 303.916L815.154 304.2L785.308 389.755L831.994 396.208L831.798 397.6L784.841 391.102L713.564 595.389Z" fill="#98012E" fill-opacity="0.1"/>
</g>
<path d="M705.904 701.041L704.775 700.198L771.695 611.963L772.824 612.807L705.904 701.041Z" fill="#98012E" fill-opacity="0.1"/>
<path d="M826.523 396.996L813.793 304.06L815.189 303.871L827.918 396.801L826.523 396.996Z" fill="#98012E" fill-opacity="0.1"/>
<path d="M273.677 788.348L143.527 715.22L144.22 713.997L274.37 787.125L273.677 788.348Z" fill="#98012E" fill-opacity="0.1"/>
<path d="M561.529 33.8424C561.529 35.7039 560.008 37.2161 558.136 37.2161C556.264 37.2161 554.743 35.7039 554.743 33.8424C554.743 31.9809 556.264 30.4688 558.136 30.4688C560.008 30.4688 561.529 31.9809 561.529 33.8424Z" fill="#98012E" fill-opacity="0.1"/>
<path d="M151.869 296.65L150.529 296.215L232.778 45.8248L539.7 187.369L557.549 32.7793L660.408 82.7157L659.791 83.9783L558.723 34.9053L540.879 189.461L539.991 189.051L233.632 47.7562L151.869 296.65Z" fill="#98012E" fill-opacity="0.1"/>
</svg>
