<svg width="29" height="28" viewBox="0 0 29 28" fill="none" xmlns="http://www.w3.org/2000/svg">
<path d="M8 19H2C0.897 19 0 18.103 0 17V11C0 9.89703 0.897 9.00003 2 9.00003H8C9.103 9.00003 10 9.89703 10 11V17C10 18.103 9.103 19 8 19ZM2 11V17H8V11H2ZM15 28C14.638 28 14.2793 27.9867 13.924 27.96C9.572 27.628 5.564 25.228 3.201 21.54L4.886 20.46C5.89016 22.0236 7.24207 23.334 8.83621 24.2889C10.4303 25.2439 12.2236 25.8175 14.076 25.965C14.3807 25.9884 14.6887 26 15 26V28ZM22 28L19.9 27C18.2 26.2 17 24.4 17 22.5V16H27V22.5C27 24.4 25.9 26.2 24.1 27L22 28ZM19 18V22.5C19 23.7 19.7 24.7 20.7 25.2L22 25.8L23.3 25.2C24.3 24.7 25 23.6 25 22.5V18H19ZM26.302 10C26.756 11.282 27 12.621 27 14H29C29 12.63 28.801 11.292 28.416 10H26.302ZM26 8.00003H23C21.897 8.00003 21 7.10303 21 6.00003V3.00003C21 1.89703 21.897 1.00003 23 1.00003H26C27.103 1.00003 28 1.89703 28 3.00003V6.00003C28 7.10303 27.103 8.00003 26 8.00003ZM23 3.00003V6.00003H26V3.00003H23ZM19 0.584031C17.7019 0.19688 16.3546 0.000163087 15 3.07277e-05C12.6484 -0.00490454 10.3337 0.584737 8.27098 1.71415C6.20831 2.84357 4.46463 4.4761 3.202 6.46003L4.886 7.54003C6.34149 5.25274 8.5309 3.52783 11.0953 2.64807C13.6597 1.76832 16.4469 1.78594 19 2.69803V0.584031Z" fill="#1E1E1E"/>
</svg>
