<svg width="22" height="27" viewBox="0 0 22 27" fill="none" xmlns="http://www.w3.org/2000/svg">
<path d="M20.5667 9.26667L15.8667 4.56667L13.0333 7.36667L10.2 4.56667L13.9667 0.766667C14.2333 0.5 14.5333 0.305778 14.8667 0.184C15.2 0.0622222 15.5333 0.000888889 15.8667 0C16.2222 0 16.5613 0.0613334 16.884 0.184C17.2067 0.306667 17.4898 0.500889 17.7333 0.766667L20.5667 3.6C20.9667 3.97778 21.2613 4.41689 21.4507 4.91733C21.64 5.41778 21.7342 5.92311 21.7333 6.43333C21.7324 6.94356 21.6382 7.44356 21.4507 7.93333C21.2631 8.42311 20.9684 8.86756 20.5667 9.26667ZM2.2 15.4C1.8 15 1.6 14.528 1.6 13.984C1.6 13.44 1.8 12.9676 2.2 12.5667L5.46667 9.26667L8.3 12.1L5 15.4C4.62222 15.8 4.16133 16 3.61733 16C3.07333 16 2.60089 15.8 2.2 15.4ZM0.766667 25.3C0.522223 25.0333 0.333333 24.7391 0.2 24.4173C0.0666668 24.0956 0 23.7564 0 23.4C0 23.0436 0.0613334 22.7049 0.184 22.384C0.306667 22.0631 0.500889 21.7684 0.766667 21.5L10.2 12.1L5.96667 7.83333C5.56667 7.45556 5.36667 6.99467 5.36667 6.45067C5.36667 5.90667 5.56667 5.43422 5.96667 5.03333C6.34444 4.63333 6.81111 4.43333 7.36667 4.43333C7.92222 4.43333 8.4 4.63333 8.8 5.03333L13.0333 9.26667L14.9333 7.36667L18.6667 11.1667C18.9333 11.4333 19.0667 11.7444 19.0667 12.1C19.0667 12.4556 18.9333 12.7667 18.6667 13.0333C18.4 13.3 18.0889 13.4333 17.7333 13.4333C17.3778 13.4333 17.0667 13.3 16.8 13.0333L4.53333 25.3C4.26667 25.5667 3.972 25.7613 3.64933 25.884C3.32667 26.0067 2.99911 26.0676 2.66667 26.0667C2.33422 26.0658 2.00089 25.9991 1.66667 25.8667C1.33244 25.7342 1.03244 25.5453 0.766667 25.3Z" fill="#1E1E1E"/>
</svg>
