<svg width="32" height="32" viewBox="0 0 32 32" fill="none" xmlns="http://www.w3.org/2000/svg">
<path d="M2.66663 13.3334C3.70663 8.24541 7.55996 4.17341 12.5413 2.78675C12.96 2.67075 13.168 2.61208 13.2813 2.73608C13.3946 2.86141 13.3106 3.06675 13.1453 3.48008L12 6.00008M18.6666 2.66675C23.7546 3.70675 27.8266 7.56008 29.2133 12.5414C29.3293 12.9601 29.388 13.1681 29.264 13.2814C29.1386 13.3947 28.9333 13.3107 28.52 13.1454L26 12.0001M29.3333 18.6667C28.2933 23.7547 24.44 27.8267 19.4586 29.2134C19.04 29.3294 18.832 29.3881 18.7186 29.2641C18.6053 29.1387 18.6893 28.9334 18.8546 28.5201L20 26.0001M13.3333 29.3334C8.24529 28.2934 4.17329 24.4401 2.78663 19.4587C2.67063 19.0401 2.61196 18.8321 2.73596 18.7187C2.86129 18.6054 3.06663 18.6894 3.47996 18.8547L5.99996 20.0001" stroke="#1E1E1E" stroke-width="2" stroke-linecap="round"/>
<path d="M11.4839 15.5534L16.1492 9.56411C16.5146 9.09611 17.1986 9.38811 17.1986 10.0121V14.6468C17.1986 15.0201 17.4652 15.3241 17.7972 15.3241H20.0666C20.5812 15.3241 20.8559 16.0094 20.5159 16.4468L15.8506 22.4361C15.4852 22.9041 14.8012 22.6121 14.8012 21.9881V17.3534C14.8012 16.9801 14.5346 16.6761 14.2026 16.6761H11.9332C11.4186 16.6761 11.1426 15.9908 11.4839 15.5534Z" stroke="#1E1E1E" stroke-width="2" stroke-linecap="round" stroke-linejoin="round"/>
</svg>
