<svg width="32" height="32" viewBox="0 0 32 32" fill="none" xmlns="http://www.w3.org/2000/svg">
<path d="M21.3331 8V6.66688C21.3331 5.95969 21.0522 5.28146 20.5522 4.78134C20.0522 4.28122 19.3741 4.00017 18.6669 4H12C11.2927 4 10.6144 4.28097 10.1142 4.78111C9.6141 5.28125 9.33313 5.95958 9.33313 6.66688V28" stroke="#1E1E1E" stroke-width="1.28" stroke-linecap="round" stroke-linejoin="round"/>
<path d="M25.3331 13.3331H17.3331V12C17.3331 10.9391 17.7546 9.92172 18.5047 9.17157C19.2548 8.42143 20.2723 8 21.3331 8C22.394 8 23.4114 8.42143 24.1616 9.17157C24.9117 9.92172 25.3331 10.9391 25.3331 12V13.3331Z" stroke="#1E1E1E" stroke-width="1.28" stroke-linecap="round" stroke-linejoin="round"/>
<path d="M18.6669 21.3332V18.667M6.66687 28.0001H12M24 21.3332V18.667" stroke="#344054" stroke-width="1.28" stroke-linecap="round" stroke-linejoin="round"/>
</svg>
