<svg width="606" height="509" viewBox="0 0 606 509" fill="none" xmlns="http://www.w3.org/2000/svg">
<path opacity="0.13" d="M17.3825 -25L17.3825 535M43.3608 -25L43.3608 535M69.3391 -25L69.3391 535M95.3175 -25L95.3175 535M121.296 -25L121.296 535M147.274 -25L147.274 535M173.252 -25L173.252 535M199.231 -25L199.231 535M225.209 -25L225.209 535M251.187 -25L251.187 535M277.166 -25L277.166 535M303.144 -25L303.144 535M329.122 -25L329.122 535M355.101 -25V535M381.079 -25L381.079 535M407.057 -25L407.057 535M433.036 -25L433.036 535M459.014 -25L459.014 535M484.992 -25L484.992 535M510.971 -25L510.971 535M536.949 -25L536.949 535M562.927 -25V535M588.906 -25V535M604.089 -6.92448H0M604.176 16.9488H0.0875381M604.262 40.8208H0.173662M604.35 64.6942H0.2612M604.436 88.5675H0.347323M604.523 112.441H0.43482M604.609 136.314H0.520943M604.697 160.187H0.608481M604.783 184.061H0.694605M604.871 207.934H0.782143M604.958 231.807H0.869639M605.044 255.681H0.955763M605.132 279.554H1.0433M605.218 303.427H1.12942M605.305 327.299H1.21696M605.392 351.173H1.30304M605.479 375.046H1.39058M605.565 398.919H1.47671M605.653 422.793H1.56424M605.739 446.666H1.65037M605.826 470.539H1.73786M605.914 494.413H1.8254M606 518.286H1.91153" stroke="url(#paint0_radial_65_1038)" stroke-width="1.93301"/>
<defs>
<radialGradient id="paint0_radial_65_1038" cx="0" cy="0" r="1" gradientUnits="userSpaceOnUse" gradientTransform="translate(303 255) rotate(90) scale(411.303 445.089)">
<stop stop-color="white"/>
<stop offset="0.708333" stop-color="#98012E" stop-opacity="0"/>
</radialGradient>
</defs>
</svg>
